<?xml version="1.0" encoding="UTF-8" standalone="no"?>
<!DOCTYPE svg PUBLIC "-//W3C//DTD SVG 1.1//EN" "http://www.w3.org/Graphics/SVG/1.1/DTD/svg11.dtd">
<svg xmlns="http://www.w3.org/2000/svg" version="1.1" viewBox="0.00 0.00 1024.00 1536.00">
<g stroke-width="2.00" fill="none" stroke-linecap="butt">
<path stroke="#291e14" vector-effect="non-scaling-stroke" d="
  M 599.02 603.76
  Q 598.98 603.21 599.10 602.85
  A 0.77 0.76 -79.4 0 1 599.88 602.31
  Q 608.74 602.95 612.00 602.96
  Q 650.04 603.04 656.00 602.92
  C 664.19 602.77 669.29 602.66 674.73 602.22
  C 679.98 601.80 684.58 602.11 690.07 601.44
  Q 695.06 600.84 700.12 600.91
  C 702.55 600.95 705.26 600.17 707.65 600.19
  Q 710.89 600.20 713.25 599.86
  Q 725.04 598.14 735.56 596.91
  Q 742.84 596.06 757.83 593.61
  Q 780.25 589.94 796.02 587.09
  Q 808.12 584.91 858.89 576.99
  Q 899.83 570.61 900.01 570.79
  Q 900.07 570.85 901.77 570.30
  Q 903.62 569.69 905.52 571.24
  Q 909.37 574.38 913.43 578.30
  Q 915.90 580.68 922.56 584.67
  Q 929.82 589.00 938.23 588.51
  C 947.91 587.95 952.58 579.05 953.85 570.40
  Q 955.27 560.71 954.87 550.22
  Q 954.59 542.96 953.15 530.05
  Q 951.70 517.05 948.24 504.99
  Q 943.67 489.05 939.04 477.98
  Q 924.85 443.96 900.03 415.95
  Q 887.45 401.75 877.57 393.21
  Q 851.58 370.73 818.07 354.72
  Q 794.24 343.34 766.74 335.80
  Q 759.23 333.74 749.80 331.24
  Q 743.32 329.53 721.48 325.71
  Q 720.11 325.47 715.51 324.98
  Q 713.16 324.73 709.56 323.99
  C 704.70 322.99 697.85 322.42 693.36 321.82
  Q 688.37 321.16 686.07 320.97
  Q 675.40 320.09 664.57 319.46
  Q 663.17 319.38 661.77 319.33
  Q 649.94 318.97 639.18 318.56
  C 630.66 318.24 622.58 318.64 615.22 318.76
  Q 605.68 318.93 597.29 319.61
  Q 566.33 322.14 536.53 329.37
  Q 534.86 329.77 533.94 329.62
  Q 532.23 329.34 531.49 328.73
  C 523.90 322.38 513.71 317.34 504.92 314.14
  Q 490.67 308.97 475.51 305.86
  Q 471.69 305.07 467.89 304.60
  Q 462.29 303.89 460.26 303.45
  C 457.57 302.87 454.95 303.09 452.07 302.56
  Q 449.43 302.08 445.90 301.99
  Q 428.29 301.52 420.76 302.02
  Q 406.58 302.95 387.25 306.86
  Q 379.66 308.39 369.81 311.65
  Q 359.33 315.11 352.87 317.93
  C 349.22 319.52 346.16 320.69 343.30 322.03
  Q 319.92 332.99 299.93 349.68
  C 295.25 353.58 290.08 358.17 286.36 362.11
  Q 272.72 376.56 264.75 387.27
  Q 237.07 424.47 225.17 469.92
  Q 221.65 483.40 220.07 492.55
  Q 217.83 505.53 216.47 523.27
  Q 216.19 526.90 215.91 536.75
  Q 215.80 540.66 215.37 550.24
  Q 215.14 555.39 215.85 572.00
  C 216.05 576.74 215.48 581.31 215.89 586.33
  Q 216.66 595.71 216.09 605.57
  Q 215.95 607.88 215.69 608.97
  A 1.80 1.78 73.4 0 1 215.25 609.79
  Q 196.06 630.37 182.92 646.92
  Q 167.89 665.82 154.39 687.85
  C 149.16 696.39 144.54 703.10 141.62 709.64
  C 138.93 715.68 135.68 720.65 133.27 725.89
  Q 130.58 731.72 126.36 740.61
  C 122.67 748.39 120.39 754.91 117.41 762.11
  Q 114.77 768.51 111.35 778.46
  Q 106.28 793.23 101.19 807.95
  Q 97.19 819.51 96.08 824.47
  Q 94.26 832.58 92.96 841.52
  Q 91.83 849.33 92.81 858.57
  C 95.23 881.18 117.29 892.99 137.43 882.09
  A 1.40 1.40 0.0 0 1 139.43 882.91
  L 139.79 884.08
  A 2.51 2.46 -47.9 0 1 139.84 885.34
  Q 138.14 892.82 140.41 900.07
  C 141.62 903.92 143.97 906.85 146.41 910.11
  A 0.95 0.94 -40.2 0 1 146.30 911.36
  Q 130.71 926.05 108.35 949.09
  Q 95.34 962.50 83.51 976.26
  Q 72.22 989.40 66.54 997.52
  C 60.21 1006.60 55.30 1016.75 55.99 1027.66
  Q 56.50 1035.93 61.24 1043.70
  Q 65.02 1049.92 71.22 1054.77
  Q 76.56 1058.94 84.87 1060.65
  Q 99.18 1063.60 113.26 1058.26
  Q 116.60 1057.00 118.03 1059.35
  Q 118.58 1060.26 121.86 1066.06
  Q 124.05 1069.95 126.46 1072.30
  C 132.30 1078.01 140.34 1082.26 148.77 1083.13
  Q 154.87 1083.76 156.01 1083.60
  Q 168.37 1081.91 175.73 1078.70
  C 190.83 1072.12 203.64 1061.08 214.23 1048.23
  C 224.17 1036.16 233.05 1023.80 240.60 1010.62
  Q 249.17 995.65 250.68 992.91
  Q 254.67 985.67 260.62 973.28
  A 2.49 2.48 25.0 0 1 263.90 972.09
  Q 276.35 977.75 289.21 981.55
  Q 314.65 989.07 341.56 992.07
  C 344.53 992.40 346.93 991.24 348.60 994.91
  Q 349.87 997.68 350.80 1000.21
  Q 357.44 1018.22 363.52 1038.25
  Q 364.29 1040.80 361.75 1041.82
  A 1.45 1.41 40.5 0 1 360.82 1041.88
  Q 357.42 1041.00 351.64 1040.75
  Q 348.79 1040.62 342.45 1040.04
  Q 331.18 1039.00 320.57 1040.55
  A 3.41 2.92 -55.1 0 0 319.80 1040.75
  Q 311.94 1043.71 312.00 1052.26
  C 312.05 1058.26 317.93 1060.16 323.23 1060.55
  C 329.30 1061.01 333.97 1060.91 339.90 1061.76
  C 354.78 1063.88 364.49 1065.11 375.62 1068.64
  Q 387.39 1072.39 393.11 1074.41
  Q 407.06 1079.35 422.76 1087.52
  Q 443.36 1098.24 447.88 1100.36
  C 452.09 1102.33 457.50 1102.66 460.89 1099.04
  C 465.07 1094.59 463.42 1088.74 459.07 1085.39
  Q 455.16 1082.37 452.67 1080.85
  Q 438.91 1072.42 431.13 1067.70
  C 428.69 1066.22 424.58 1064.39 422.24 1062.28
  Q 421.51 1061.61 421.74 1060.47"
/>
<path stroke="#291e14" vector-effect="non-scaling-stroke" d="
  M 599.02 603.76
  Q 598.33 603.74 597.91 603.32
  A 0.51 0.50 -77.5 0 0 597.08 603.85
  Q 597.74 605.67 599.04 607.70
  Q 608.48 622.42 616.19 640.53
  Q 619.89 649.21 622.43 655.74
  C 624.78 661.79 626.00 666.40 628.17 672.81
  Q 630.46 679.58 632.18 688.53
  Q 634.92 702.83 636.39 713.44
  C 638.45 728.36 638.62 743.53 638.18 759.21
  Q 637.87 770.48 636.60 779.72
  Q 634.58 794.44 632.54 804.44
  Q 625.73 837.83 610.17 867.69
  Q 602.02 883.31 598.76 888.28
  Q 584.15 910.60 567.97 926.46
  Q 544.55 949.41 514.67 964.40
  Q 506.03 968.73 497.15 971.87
  Q 495.43 972.48 482.14 977.19
  Q 480.20 977.87 478.21 978.28
  A 2.96 2.96 0.0 0 0 475.84 981.25
  L 475.89 983.63
  A 0.77 0.75 -58.6 0 0 475.97 983.97
  Q 476.77 985.72 478.27 990.65
  Q 478.28 990.66 478.41 990.86
  Q 478.51 990.99 478.62 991.11
  A 1.69 1.69 0.0 0 1 479.01 991.76
  Q 480.70 997.08 482.13 1002.69
  Q 482.34 1003.51 482.85 1004.29
  A 0.60 0.42 -79.7 0 1 482.90 1004.40
  L 485.67 1014.53
  A 1.82 1.82 0.0 0 0 487.30 1015.87
  C 494.51 1016.40 501.49 1015.70 508.77 1016.02
  Q 509.37 1016.05 520.27 1016.36
  Q 541.22 1016.98 544.24 1017.31
  Q 552.67 1018.23 560.22 1018.93
  Q 570.47 1019.88 585.42 1023.88
  C 588.87 1024.80 593.42 1027.17 594.48 1030.57
  C 597.23 1039.42 589.80 1046.69 580.98 1043.97
  Q 570.55 1040.76 567.17 1040.03
  Q 560.54 1038.61 553.09 1037.11
  Q 546.16 1035.72 536.76 1035.60
  A 0.63 0.63 0.0 0 0 536.21 1036.56
  Q 537.12 1038.06 539.02 1038.98
  Q 542.75 1040.78 557.02 1047.48
  C 559.94 1048.85 563.76 1051.21 566.64 1053.15
  Q 572.00 1056.78 571.10 1063.49
  C 569.87 1072.78 561.20 1073.55 554.26 1070.25
  Q 550.43 1068.44 548.86 1067.41
  Q 531.17 1055.77 511.68 1048.92
  Q 510.01 1048.33 507.05 1047.55
  Q 505.12 1047.04 502.41 1046.21
  Q 500.77 1045.71 495.28 1044.87
  C 485.75 1043.43 474.53 1041.52 463.01 1040.98
  C 458.10 1040.75 454.40 1040.07 448.98 1039.96
  Q 444.15 1039.86 439.39 1038.79
  C 432.24 1037.20 430.10 1028.60 432.12 1022.46
  A 2.26 2.20 75.7 0 1 432.60 1021.63
  Q 435.53 1018.39 440.25 1017.92
  Q 448.95 1017.05 456.00 1016.72
  Q 457.59 1016.65 459.18 1014.59
  A 1.35 1.35 0.0 0 0 459.40 1013.38
  L 451.40 987.41
  A 1.82 1.82 0.0 0 0 449.89 986.13
  C 447.46 985.81 445.86 986.88 444.11 987.13
  C 436.06 988.25 427.71 990.58 418.90 991.47
  Q 402.50 993.14 393.15 993.87
  C 388.93 994.20 384.82 993.76 379.58 994.00
  A 0.62 0.62 0.0 0 0 378.98 994.65
  Q 379.13 998.23 379.65 999.23
  Q 380.73 1001.35 382.21 1006.27
  Q 382.46 1007.12 383.06 1007.83
  A 0.50 0.30 -87.2 0 1 383.14 1007.98
  L 392.43 1038.14
  A 2.91 2.91 0.0 0 0 394.97 1040.18
  Q 410.24 1041.43 427.42 1043.47
  Q 445.38 1045.60 448.72 1046.34
  Q 449.28 1046.46 450.94 1047.04
  A 3.88 3.85 57.8 0 0 451.76 1047.23
  Q 466.06 1048.94 479.67 1054.89
  C 487.37 1058.25 492.98 1063.41 488.32 1071.87
  C 484.96 1077.98 477.00 1077.38 470.88 1075.05
  Q 457.57 1069.97 452.05 1067.49
  C 446.72 1065.10 443.54 1064.28 436.91 1062.16
  Q 430.63 1060.14 422.25 1059.19
  Q 421.64 1059.12 421.34 1059.39
  Q 420.94 1059.74 421.16 1060.20
  Q 421.47 1060.85 421.74 1060.47"
/>
<path stroke="#514031" vector-effect="non-scaling-stroke" d="
  M 512.03 353.38
  Q 513.51 350.28 514.16 348.90
  Q 518.61 339.45 508.94 335.25
  Q 492.46 328.09 474.24 324.56
  Q 462.34 322.25 459.86 321.94
  Q 450.87 320.83 440.25 320.68
  Q 417.70 320.36 396.79 323.56
  Q 374.24 327.02 347.72 339.26
  Q 344.61 340.69 339.92 343.49
  Q 333.38 347.38 332.37 348.12
  C 324.85 353.63 317.34 358.54 310.70 364.18
  Q 295.16 377.39 285.09 390.07
  C 279.51 397.09 274.35 403.15 270.09 410.57
  C 261.41 425.69 252.51 440.26 247.63 456.69
  C 245.04 465.42 241.25 475.05 239.14 484.51
  Q 233.90 507.94 232.76 520.97
  Q 231.08 540.16 230.92 552.79
  Q 230.91 553.45 230.84 574.64
  C 230.81 584.84 231.66 593.60 232.06 603.51
  C 232.26 608.41 232.75 612.62 230.12 615.86
  C 228.01 618.44 223.61 623.29 220.99 627.34
  Q 214.39 637.55 210.34 642.11
  C 196.53 657.66 183.88 673.95 172.61 692.44
  Q 159.98 713.17 156.54 719.26
  Q 141.00 746.70 129.55 778.48
  Q 120.27 804.25 115.14 819.60
  Q 109.95 835.16 109.10 850.04
  C 108.63 858.31 113.13 865.15 122.02 865.41
  Q 131.67 865.70 140.01 861.24
  C 148.55 856.67 156.86 850.02 165.30 842.04
  Q 174.48 833.34 195.54 812.88
  Q 203.33 805.30 210.29 797.44
  Q 223.19 782.86 224.51 781.51
  C 227.17 778.80 231.82 770.29 238.16 767.69
  A 2.01 2.00 60.6 0 1 240.53 768.36
  Q 242.45 770.95 241.53 774.57
  C 239.65 781.98 237.57 785.78 233.18 794.43
  Q 230.82 799.09 224.41 806.16
  Q 201.22 831.72 180.14 854.88
  C 171.84 863.99 159.23 873.73 158.64 886.89
  Q 158.40 892.23 158.90 894.57
  C 161.35 906.12 182.78 904.60 190.93 902.95
  Q 196.90 901.74 201.83 900.07
  Q 215.48 895.44 227.42 889.64
  Q 241.16 882.96 246.86 878.59
  C 255.20 872.19 267.56 862.58 276.80 853.49
  Q 290.17 840.33 294.62 835.87
  Q 296.25 834.24 308.05 820.06
  Q 309.36 818.49 318.57 809.42
  C 320.33 807.68 322.64 806.34 324.84 805.99
  A 2.49 2.49 0.0 0 1 327.68 808.01
  C 328.76 814.12 326.16 818.35 322.90 824.31
  Q 318.27 832.76 309.94 842.44
  Q 295.05 859.73 283.59 870.82
  Q 278.28 875.96 273.84 881.10
  Q 267.69 888.22 260.47 893.57
  C 258.73 894.86 255.71 897.96 255.12 899.67
  Q 254.50 901.45 255.97 903.81
  C 258.66 908.14 261.91 908.27 267.16 908.94
  Q 273.15 909.71 278.86 909.14
  C 286.89 908.35 294.49 907.47 302.38 905.01
  Q 312.97 901.72 316.44 900.55
  C 322.33 898.57 327.31 895.92 332.60 893.75
  Q 338.55 891.32 344.49 888.13
  Q 375.64 871.43 400.25 847.75
  Q 415.24 833.32 425.99 813.55
  Q 426.93 811.81 427.69 809.68
  C 429.04 805.88 429.61 803.92 431.70 799.88
  Q 439.65 784.51 443.32 766.11
  Q 444.08 762.31 444.42 758.73
  C 445.06 752.08 445.92 746.14 445.90 740.11
  C 445.80 712.28 436.25 684.31 421.40 660.88
  C 415.66 651.85 408.00 644.17 400.47 636.53
  Q 396.30 632.29 385.00 622.48
  Q 364.13 604.34 357.52 597.58
  Q 346.42 586.24 341.26 576.51
  Q 318.74 534.03 324.82 483.54
  C 325.46 478.20 327.15 471.46 328.08 465.65
  Q 329.09 459.32 331.43 452.47
  Q 336.93 436.38 344.80 423.75
  Q 353.99 408.99 364.72 397.21
  Q 369.28 392.19 375.74 387.00
  Q 390.30 375.29 404.62 367.15
  Q 415.41 361.01 433.16 355.15
  C 444.24 351.48 456.83 349.92 468.28 349.15
  Q 488.84 347.77 509.91 354.30
  A 1.78 1.77 21.4 0 0 512.03 353.38"
/>
<path stroke="#291e14" vector-effect="non-scaling-stroke" d="
  M 639.94 507.37
  Q 646.59 507.10 656.75 506.90
  Q 718.41 505.69 755.74 507.32
  C 792.30 508.93 828.85 514.39 862.92 526.70
  Q 875.15 531.12 886.80 537.63
  C 899.91 544.96 912.07 553.01 923.08 563.17
  Q 926.65 566.46 929.51 568.23
  C 935.27 571.78 936.18 564.87 936.61 560.97
  Q 937.88 549.24 936.57 536.02
  Q 934.54 515.36 927.43 495.78
  Q 919.91 475.06 910.21 459.26
  Q 897.10 437.91 878.52 418.21
  Q 859.64 398.18 837.15 384.66
  Q 812.75 369.98 782.91 359.66
  Q 752.68 349.22 723.48 344.34
  Q 698.99 340.26 677.99 338.21
  Q 643.71 334.88 607.89 336.69
  Q 598.48 337.16 585.92 338.53
  Q 568.54 340.43 564.00 341.22
  Q 543.63 344.79 532.12 347.66
  C 528.87 348.47 528.44 352.52 527.83 355.70
  C 526.93 360.48 526.92 366.41 526.48 369.74
  Q 525.90 374.11 526.08 378.02
  Q 526.27 382.09 525.57 395.02
  Q 525.15 402.81 525.18 412.00
  Q 525.28 440.45 525.31 446.79
  C 525.38 461.26 526.15 475.53 526.12 488.52
  C 526.11 493.65 526.74 497.68 527.32 503.37
  A 1.80 1.80 0.0 0 0 528.90 504.98
  C 541.16 506.43 554.12 506.99 570.02 507.25
  C 574.42 507.32 580.30 507.94 585.01 507.94
  Q 604.56 507.96 623.15 507.97
  Q 624.84 507.97 639.94 507.37"
/>
<path stroke="#514031" vector-effect="non-scaling-stroke" d="
  M 461.51 706.91
  C 461.75 712.50 463.26 718.87 463.55 723.27
  Q 464.56 738.31 462.92 753.23
  Q 462.09 760.75 458.96 773.21
  Q 455.23 788.08 453.94 792.99
  Q 451.71 801.51 449.50 805.78
  Q 445.37 813.76 443.10 818.19
  C 428.99 845.77 410.36 866.43 386.14 884.85
  C 379.09 890.21 371.83 893.93 363.66 899.10
  C 353.67 905.41 340.86 911.92 331.85 915.85
  Q 321.44 920.39 304.54 924.91
  Q 283.90 930.44 259.48 927.82
  C 253.81 927.21 247.93 923.76 243.13 920.80
  C 238.63 918.02 235.44 914.38 232.09 910.96
  A 1.47 1.46 -34.4 0 0 230.43 910.65
  Q 216.65 916.99 203.54 921.80
  C 196.05 924.54 189.30 925.53 180.12 924.64
  Q 175.13 924.16 167.23 924.09
  Q 163.23 924.05 158.56 925.66
  Q 155.48 926.72 151.39 930.62
  Q 136.59 944.76 131.60 949.85
  C 121.48 960.16 113.74 967.40 106.20 976.42
  Q 92.51 992.79 81.38 1007.75
  C 74.16 1017.46 69.13 1029.76 78.81 1038.98
  C 83.51 1043.45 92.86 1045.05 98.65 1043.79
  Q 106.38 1042.12 113.67 1037.44
  Q 117.97 1034.68 125.59 1026.24
  C 141.56 1008.57 157.11 988.86 169.41 973.91
  C 172.91 969.66 177.16 964.05 182.69 963.74
  A 1.36 1.36 0.0 0 1 184.13 965.08
  Q 184.30 973.87 180.44 982.18
  C 176.20 991.32 171.60 999.44 164.69 1008.42
  Q 150.23 1027.20 134.33 1044.32
  Q 132.81 1045.96 132.69 1047.34
  A 2.11 2.02 -48.9 0 0 132.72 1048.01
  C 134.15 1055.87 144.01 1064.20 152.24 1064.26
  C 170.46 1064.41 181.78 1054.43 193.41 1041.93
  Q 213.67 1020.16 228.56 994.73
  C 234.93 983.86 237.92 978.81 247.02 963.76
  Q 249.51 959.65 252.41 956.67
  C 257.72 951.24 266.11 951.98 272.70 955.21
  C 288.77 963.06 307.73 968.28 324.80 971.43
  C 342.74 974.74 362.54 975.48 381.95 975.09
  Q 391.66 974.89 404.74 973.53
  Q 419.25 972.02 427.40 970.57
  Q 435.52 969.12 449.51 966.49
  C 466.35 963.32 481.67 957.50 498.62 950.07
  C 511.57 944.39 522.82 937.03 534.60 928.83
  Q 545.75 921.07 557.15 908.89
  Q 577.72 886.94 591.74 861.68
  C 601.21 844.63 607.78 825.43 612.62 806.21
  C 613.75 801.70 614.69 795.63 615.23 791.92
  Q 616.78 781.28 618.46 763.06"
/>
<path stroke="#291e14" vector-effect="non-scaling-stroke" d="
  M 618.46 763.06
  Q 620.79 757.10 620.74 747.50
  Q 620.52 704.25 607.29 664.85
  C 605.40 659.22 602.34 652.24 600.46 647.83
  Q 589.14 621.28 572.65 598.37
  A 3.16 3.16 0.0 0 0 570.67 597.12
  C 560.20 595.17 550.62 592.86 542.41 587.59
  C 528.79 578.85 519.11 563.12 515.56 547.72
  Q 513.21 537.49 512.95 531.77
  Q 511.82 506.70 511.70 505.11
  Q 510.99 495.17 510.95 478.39
  Q 510.92 461.09 510.80 443.25
  Q 510.78 440.67 510.79 436.00
  Q 510.82 405.17 510.93 376.70
  C 510.94 374.59 511.05 372.48 509.21 371.33
  Q 506.54 369.66 501.51 368.52
  C 494.49 366.92 486.30 365.80 479.01 365.97
  Q 476.97 366.02 468.51 366.17
  C 458.82 366.34 448.15 368.81 438.32 371.87
  Q 431.57 373.97 428.90 375.07
  Q 413.43 381.45 405.46 386.52
  Q 365.51 411.91 347.97 457.38
  Q 344.66 465.96 343.26 473.30
  Q 341.49 482.59 341.19 489.75
  Q 340.38 509.16 343.85 531.69
  Q 344.33 534.83 345.83 539.63
  Q 354.31 566.69 373.38 587.12
  Q 375.50 589.39 394.63 607.21
  Q 399.91 612.12 405.46 617.69
  C 411.11 623.37 416.02 627.78 421.47 634.15
  C 433.81 648.58 443.81 663.41 451.44 680.84
  C 454.28 687.31 456.42 694.41 459.10 702.39
  Q 459.52 703.67 461.51 706.91"
/>
<path stroke="#2a231e" vector-effect="non-scaling-stroke" d="
  M 618.46 763.06
  Q 605.96 769.95 601.44 771.67
  Q 589.32 776.29 572.98 776.35
  Q 538.77 776.48 510.61 757.90
  C 506.68 755.30 502.45 751.66 499.10 749.23
  Q 495.22 746.41 490.93 742.18
  Q 482.64 734.00 482.10 733.39
  Q 471.03 720.85 461.51 706.91"
/>
<path stroke="#a87b2d" vector-effect="non-scaling-stroke" d="
  M 883.53 555.70
  Q 883.45 555.84 883.96 555.37"
/>
<path stroke="#291e14" vector-effect="non-scaling-stroke" d="
  M 883.96 555.37
  Q 884.64 554.81 883.05 553.73
  Q 871.81 546.16 858.08 540.90
  Q 844.33 535.65 829.76 532.28
  Q 813.86 528.61 809.54 527.96
  Q 784.61 524.17 765.49 523.33
  Q 753.13 522.79 747.61 522.51
  C 732.46 521.74 719.76 522.17 702.09 522.08
  Q 690.39 522.02 674.42 522.53
  Q 654.97 523.14 622.19 523.09
  C 618.75 523.08 613.17 523.49 610.50 523.45
  Q 582.94 523.05 578.39 523.12
  Q 570.59 523.25 562.62 522.72
  C 555.02 522.21 547.02 522.08 539.19 521.48
  Q 534.78 521.15 530.05 521.41
  A 0.55 0.55 0.0 0 0 529.53 521.89
  Q 529.06 525.28 529.36 528.64
  Q 530.54 541.70 534.73 552.03
  Q 543.41 573.40 565.48 580.03
  C 577.92 583.77 591.52 584.73 604.55 584.88
  C 614.25 584.98 622.46 585.91 632.18 585.92
  Q 657.17 585.97 661.94 585.83
  C 667.32 585.68 674.41 584.85 680.70 584.89
  Q 691.60 584.95 705.03 583.69
  Q 716.62 582.61 735.07 580.33
  Q 744.99 579.11 805.39 569.43
  Q 808.35 568.95 811.20 568.60
  Q 814.99 568.12 817.00 567.76
  Q 828.14 565.78 841.99 563.68
  Q 850.51 562.38 883.05 556.86
  Q 883.72 556.75 883.94 556.11
  Q 884.02 555.87 883.53 555.70"
/>
<path stroke="#815e1a" vector-effect="non-scaling-stroke" d="
  M 883.96 555.37
  Q 875.87 549.97 869.49 546.98
  Q 852.46 539.01 831.42 533.85
  Q 805.12 527.40 778.12 525.43
  Q 731.78 522.05 681.78 523.58
  Q 680.19 523.63 664.70 524.02
  Q 617.97 525.19 596.75 524.91
  Q 565.12 524.48 530.50 522.33
  A 0.41 0.40 88.7 0 0 530.08 522.77
  C 531.55 541.84 536.21 563.60 554.32 573.92
  C 568.21 581.83 584.85 582.91 601.13 583.63
  Q 644.00 585.51 684.75 583.64
  Q 709.26 582.52 728.25 579.98
  Q 745.91 577.63 777.72 572.64
  Q 830.66 564.34 883.53 555.70"
/>
<path stroke="#7c4810" vector-effect="non-scaling-stroke" d="
  M 788.21 508.57
  Q 813.33 511.52 840.14 518.37
  Q 863.99 524.48 883.12 534.35
  C 888.01 536.88 893.82 540.56 899.09 543.67
  Q 907.86 548.83 917.57 557.09
  C 924.48 562.98 928.52 567.41 932.44 568.18
  A 1.71 1.71 0.0 0 0 934.42 566.94
  Q 935.57 562.59 935.81 557.00
  Q 936.25 546.84 935.37 536.76"
/>
<path stroke="#815e1a" vector-effect="non-scaling-stroke" d="
  M 935.37 536.76
  Q 933.28 516.49 926.62 497.32
  C 915.43 465.07 896.97 438.08 872.39 413.61
  Q 851.10 392.43 826.22 379.84
  Q 816.50 374.93 816.21 374.78
  Q 810.77 371.98 806.10 369.97
  Q 766.42 352.85 723.60 345.71
  Q 689.62 340.04 664.24 338.44
  Q 638.33 336.81 604.24 338.41
  Q 593.78 338.89 580.79 340.45
  Q 562.05 342.70 557.47 343.68
  Q 543.84 346.58 533.54 348.56
  C 531.51 348.95 530.50 349.60 530.02 351.56
  Q 528.58 357.53 528.22 363.98
  Q 525.92 405.81 526.60 444.74
  C 527.09 472.43 527.30 488.22 528.11 502.52
  A 1.43 1.41 0.7 0 0 529.42 503.85
  C 533.22 504.13 536.67 504.70 540.55 504.90
  C 580.51 507.02 624.89 506.52 658.34 505.68
  Q 697.73 504.70 732.25 505.22
  Q 759.28 505.62 788.21 508.57"
/>
<path stroke="#fba528" vector-effect="non-scaling-stroke" d="
  M 935.37 536.76
  L 935.04 538.29
  A 0.24 0.24 0.0 0 1 934.56 538.27
  Q 933.16 527.30 931.29 518.20
  Q 929.18 507.96 925.83 498.66
  Q 917.36 475.11 903.63 453.87
  C 901.78 450.99 899.35 448.11 897.32 445.09
  Q 895.03 441.67 892.59 438.59
  Q 889.33 434.47 885.95 430.41
  Q 880.06 423.34 878.88 422.15
  C 871.39 414.64 867.19 410.01 860.58 404.44
  Q 847.45 393.35 833.32 384.90
  Q 829.34 382.52 825.00 380.43
  A 1.71 1.69 -46.6 0 0 823.42 380.48
  Q 815.48 384.93 809.78 390.52"
/>
<path stroke="#fb9830" vector-effect="non-scaling-stroke" d="
  M 809.78 390.52
  C 807.25 392.83 804.39 394.89 802.17 397.23
  C 792.73 407.16 785.23 418.58 778.24 430.73
  C 773.34 439.25 769.15 449.42 767.19 457.94
  Q 765.89 463.59 763.03 477.67
  Q 761.68 484.32 761.25 491.05
  Q 760.86 497.25 760.05 504.44
  A 0.59 0.58 5.1 0 0 760.60 505.09
  L 781.92 506.16
  A 1.10 0.99 -34.1 0 1 782.21 506.20
  Q 785.27 507.02 788.46 507.13"
/>
<path stroke="#fba528" vector-effect="non-scaling-stroke" d="
  M 788.46 507.13
  L 788.78 508.12
  A 0.28 0.26 -43.2 0 1 788.77 508.28
  Q 788.60 508.60 788.21 508.57"
/>
<path stroke="#f68226" vector-effect="non-scaling-stroke" d="
  M 788.46 507.13
  C 800.13 508.21 812.29 510.66 820.34 512.12
  Q 830.66 513.99 837.54 515.89
  C 853.80 520.40 869.42 525.40 883.90 533.09
  Q 907.34 545.52 925.41 561.83
  A 3.77 3.53 -8.2 0 0 925.97 562.22
  L 927.19 562.89
  A 3.02 3.02 0.0 0 0 930.97 562.16
  Q 935.15 557.09 933.35 550.06
  C 932.97 548.59 931.99 547.36 930.98 545.77
  Q 930.32 544.74 929.50 542.40
  Q 927.00 535.30 922.66 523.24
  C 919.84 515.40 916.26 508.82 913.37 500.85
  C 910.60 493.22 907.02 486.25 903.02 479.48
  Q 894.78 465.55 882.55 449.66
  C 866.65 429.02 847.47 412.19 825.72 399.83
  C 820.81 397.04 816.33 395.35 810.82 393.17
  A 0.97 0.96 4.9 0 1 810.24 392.49
  L 809.78 390.52"
/>
<path stroke="#817865" vector-effect="non-scaling-stroke" d="
  M 344.24 524.82
  C 345.99 543.03 354.90 561.70 365.73 576.25
  Q 371.84 584.47 384.68 596.42
  Q 387.12 598.70 404.94 615.31
  C 424.59 633.63 441.77 655.66 452.74 680.63
  C 455.49 686.89 457.73 694.67 460.01 701.24
  Q 460.64 703.04 461.74 704.77
  C 473.96 723.91 489.59 741.59 508.37 754.83
  C 532.98 772.17 564.58 779.33 594.21 772.56
  C 602.35 770.71 610.36 766.38 617.19 762.23
  A 3.23 3.22 -14.1 0 0 618.73 759.67
  Q 620.59 729.06 614.63 699.07
  C 611.95 685.62 609.07 674.10 604.18 661.06
  C 596.01 639.25 585.29 618.68 572.02 599.60
  A 3.25 3.21 -12.6 0 0 569.88 598.26
  C 556.30 596.06 544.03 591.92 533.65 582.09
  Q 518.65 567.88 514.08 546.83
  Q 513.03 541.98 512.15 537.01"
/>
<path stroke="#815e1a" vector-effect="non-scaling-stroke" d="
  M 512.15 537.01
  Q 510.60 518.67 510.13 505.24
  Q 508.15 449.83 509.71 386.50
  Q 509.96 376.48 509.75 374.72
  Q 509.45 372.26 506.87 371.38
  Q 503.08 370.09 499.80 369.44
  C 473.15 364.21 447.69 368.20 422.52 378.95
  C 387.86 393.75 361.36 423.76 348.61 458.97
  C 340.99 479.99 340.96 502.85 344.24 524.82"
/>
<path stroke="#ffd57e" vector-effect="non-scaling-stroke" d="
  M 512.15 537.01
  Q 511.26 536.62 511.29 538.49
  Q 511.32 539.87 509.70 542.17
  Q 498.77 557.75 483.06 568.77
  C 466.69 580.25 446.74 584.26 427.10 582.21
  Q 423.36 581.82 420.82 581.23
  C 415.76 580.05 410.37 579.04 405.43 577.34
  Q 371.94 565.82 352.45 535.83
  Q 349.72 531.63 346.45 526.54
  A 1.95 1.69 -74.6 0 1 346.23 526.08
  L 345.65 524.18
  A 0.51 0.50 -29.6 0 0 344.83 523.96
  Q 344.51 524.24 344.24 524.82"
/>
<path stroke="#815e1a" vector-effect="non-scaling-stroke" d="
  M 432.8116 538.0492
  A 45.25 33.00 95.4 0 0 469.9235 496.1056
  A 45.25 33.00 95.4 0 0 441.3284 447.9508
  A 45.25 33.00 95.4 0 0 404.2165 489.8944
  A 45.25 33.00 95.4 0 0 432.8116 538.0492"
/>
<path stroke="#291e14" vector-effect="non-scaling-stroke" d="
  M 433.0229 536.8018
  A 44.03 31.73 95.3 0 0 468.6843 495.8909
  A 44.03 31.73 95.3 0 0 441.1571 449.1182
  A 44.03 31.73 95.3 0 0 405.4957 490.0291
  A 44.03 31.73 95.3 0 0 433.0229 536.8018"
/>
<path stroke="#fba528" vector-effect="non-scaling-stroke" d="
  M 878.56 554.63
  A 0.45 0.45 0.0 0 0 878.53 553.90
  Q 872.63 549.98 865.07 546.69
  Q 845.95 538.37 825.93 534.08
  Q 818.57 532.50 791.75 528.03
  C 784.03 526.75 776.53 526.73 768.42 525.98
  C 762.89 525.46 757.92 525.81 751.78 525.41
  Q 748.27 525.18 739.33 525.00
  Q 721.84 524.64 717.26 524.70
  Q 697.16 524.94 676.29 524.97
  C 668.84 524.99 658.05 525.97 649.51 525.89
  Q 623.50 525.64 614.57 525.88
  Q 602.79 526.19 588.50 525.74
  C 580.73 525.49 570.28 526.05 561.30 525.27
  Q 555.07 524.72 550.27 524.85
  C 544.17 525.01 538.81 523.90 532.68 523.84
  A 0.74 0.73 88.2 0 0 531.94 524.63
  C 532.81 536.21 534.91 548.08 540.88 557.79
  Q 552.55 576.80 576.57 579.71
  C 586.64 580.93 593.68 582.15 602.26 582.14
  C 609.81 582.14 618.01 582.99 627.88 583.12
  Q 665.01 583.61 699.20 581.38
  Q 705.19 580.99 712.26 580.09
  Q 714.66 579.79 725.32 578.65
  C 744.37 576.61 764.14 572.79 783.45 570.12
  Q 792.06 568.93 810.96 565.69
  Q 822.50 563.72 847.91 560.05
  Q 858.78 558.48 877.18 555.19
  Q 878.06 555.03 878.56 554.63"
/>
</g>
<path fill="#020101" d="
  M 599.02 603.76
  Q 598.98 603.21 599.10 602.85
  A 0.77 0.76 -79.4 0 1 599.88 602.31
  Q 608.74 602.95 612.00 602.96
  Q 650.04 603.04 656.00 602.92
  C 664.19 602.77 669.29 602.66 674.73 602.22
  C 679.98 601.80 684.58 602.11 690.07 601.44
  Q 695.06 600.84 700.12 600.91
  C 702.55 600.95 705.26 600.17 707.65 600.19
  Q 710.89 600.20 713.25 599.86
  Q 725.04 598.14 735.56 596.91
  Q 742.84 596.06 757.83 593.61
  Q 780.25 589.94 796.02 587.09
  Q 808.12 584.91 858.89 576.99
  Q 899.83 570.61 900.01 570.79
  Q 900.07 570.85 901.77 570.30
  Q 903.62 569.69 905.52 571.24
  Q 909.37 574.38 913.43 578.30
  Q 915.90 580.68 922.56 584.67
  Q 929.82 589.00 938.23 588.51
  C 947.91 587.95 952.58 579.05 953.85 570.40
  Q 955.27 560.71 954.87 550.22
  Q 954.59 542.96 953.15 530.05
  Q 951.70 517.05 948.24 504.99
  Q 943.67 489.05 939.04 477.98
  Q 924.85 443.96 900.03 415.95
  Q 887.45 401.75 877.57 393.21
  Q 851.58 370.73 818.07 354.72
  Q 794.24 343.34 766.74 335.80
  Q 759.23 333.74 749.80 331.24
  Q 743.32 329.53 721.48 325.71
  Q 720.11 325.47 715.51 324.98
  Q 713.16 324.73 709.56 323.99
  C 704.70 322.99 697.85 322.42 693.36 321.82
  Q 688.37 321.16 686.07 320.97
  Q 675.40 320.09 664.57 319.46
  Q 663.17 319.38 661.77 319.33
  Q 649.94 318.97 639.18 318.56
  C 630.66 318.24 622.58 318.64 615.22 318.76
  Q 605.68 318.93 597.29 319.61
  Q 566.33 322.14 536.53 329.37
  Q 534.86 329.77 533.94 329.62
  Q 532.23 329.34 531.49 328.73
  C 523.90 322.38 513.71 317.34 504.92 314.14
  Q 490.67 308.97 475.51 305.86
  Q 471.69 305.07 467.89 304.60
  Q 462.29 303.89 460.26 303.45
  C 457.57 302.87 454.95 303.09 452.07 302.56
  Q 449.43 302.08 445.90 301.99
  Q 428.29 301.52 420.76 302.02
  Q 406.58 302.95 387.25 306.86
  Q 379.66 308.39 369.81 311.65
  Q 359.33 315.11 352.87 317.93
  C 349.22 319.52 346.16 320.69 343.30 322.03
  Q 319.92 332.99 299.93 349.68
  C 295.25 353.58 290.08 358.17 286.36 362.11
  Q 272.72 376.56 264.75 387.27
  Q 237.07 424.47 225.17 469.92
  Q 221.65 483.40 220.07 492.55
  Q 217.83 505.53 216.47 523.27
  Q 216.19 526.90 215.91 536.75
  Q 215.80 540.66 215.37 550.24
  Q 215.14 555.39 215.85 572.00
  C 216.05 576.74 215.48 581.31 215.89 586.33
  Q 216.66 595.71 216.09 605.57
  Q 215.95 607.88 215.69 608.97
  A 1.80 1.78 73.4 0 1 215.25 609.79
  Q 196.06 630.37 182.92 646.92
  Q 167.89 665.82 154.39 687.85
  C 149.16 696.39 144.54 703.10 141.62 709.64
  C 138.93 715.68 135.68 720.65 133.27 725.89
  Q 130.58 731.72 126.36 740.61
  C 122.67 748.39 120.39 754.91 117.41 762.11
  Q 114.77 768.51 111.35 778.46
  Q 106.28 793.23 101.19 807.95
  Q 97.19 819.51 96.08 824.47
  Q 94.26 832.58 92.96 841.52
  Q 91.83 849.33 92.81 858.57
  C 95.23 881.18 117.29 892.99 137.43 882.09
  A 1.40 1.40 0.0 0 1 139.43 882.91
  L 139.79 884.08
  A 2.51 2.46 -47.9 0 1 139.84 885.34
  Q 138.14 892.82 140.41 900.07
  C 141.62 903.92 143.97 906.85 146.41 910.11
  A 0.95 0.94 -40.2 0 1 146.30 911.36
  Q 130.71 926.05 108.35 949.09
  Q 95.34 962.50 83.51 976.26
  Q 72.22 989.40 66.54 997.52
  C 60.21 1006.60 55.30 1016.75 55.99 1027.66
  Q 56.50 1035.93 61.24 1043.70
  Q 65.02 1049.92 71.22 1054.77
  Q 76.56 1058.94 84.87 1060.65
  Q 99.18 1063.60 113.26 1058.26
  Q 116.60 1057.00 118.03 1059.35
  Q 118.58 1060.26 121.86 1066.06
  Q 124.05 1069.95 126.46 1072.30
  C 132.30 1078.01 140.34 1082.26 148.77 1083.13
  Q 154.87 1083.76 156.01 1083.60
  Q 168.37 1081.91 175.73 1078.70
  C 190.83 1072.12 203.64 1061.08 214.23 1048.23
  C 224.17 1036.16 233.05 1023.80 240.60 1010.62
  Q 249.17 995.65 250.68 992.91
  Q 254.67 985.67 260.62 973.28
  A 2.49 2.48 25.0 0 1 263.90 972.09
  Q 276.35 977.75 289.21 981.55
  Q 314.65 989.07 341.56 992.07
  C 344.53 992.40 346.93 991.24 348.60 994.91
  Q 349.87 997.68 350.80 1000.21
  Q 357.44 1018.22 363.52 1038.25
  Q 364.29 1040.80 361.75 1041.82
  A 1.45 1.41 40.5 0 1 360.82 1041.88
  Q 357.42 1041.00 351.64 1040.75
  Q 348.79 1040.62 342.45 1040.04
  Q 331.18 1039.00 320.57 1040.55
  A 3.41 2.92 -55.1 0 0 319.80 1040.75
  Q 311.94 1043.71 312.00 1052.26
  C 312.05 1058.26 317.93 1060.16 323.23 1060.55
  C 329.30 1061.01 333.97 1060.91 339.90 1061.76
  C 354.78 1063.88 364.49 1065.11 375.62 1068.64
  Q 387.39 1072.39 393.11 1074.41
  Q 407.06 1079.35 422.76 1087.52
  Q 443.36 1098.24 447.88 1100.36
  C 452.09 1102.33 457.50 1102.66 460.89 1099.04
  C 465.07 1094.59 463.42 1088.74 459.07 1085.39
  Q 455.16 1082.37 452.67 1080.85
  Q 438.91 1072.42 431.13 1067.70
  C 428.69 1066.22 424.58 1064.39 422.24 1062.28
  Q 421.51 1061.61 421.74 1060.47
  Q 422.86 1061.42 424.07 1062.12
  Q 437.48 1069.81 453.26 1079.73
  Q 456.44 1081.73 460.12 1084.63
  C 465.93 1089.21 466.51 1096.98 460.12 1101.44
  C 456.16 1104.20 450.21 1103.30 445.91 1101.07
  Q 444.47 1100.32 439.17 1097.48
  Q 424.69 1089.73 411.85 1083.69
  Q 399.68 1077.96 383.88 1072.62
  Q 368.02 1067.25 350.30 1064.62
  Q 331.11 1061.77 321.39 1061.83
  A 0.58 0.21 25.1 0 1 321.28 1061.82
  L 316.15 1060.71
  A 0.05 0.01 31.7 0 1 316.12 1060.70
  Q 311.62 1058.01 310.99 1054.25
  Q 309.28 1043.94 319.16 1039.46
  Q 320.92 1038.66 324.76 1038.28
  Q 331.44 1037.61 337.42 1038.26
  C 345.14 1039.11 353.12 1039.02 360.80 1040.45
  A 1.25 1.25 0.0 0 0 362.24 1038.89
  Q 360.91 1034.12 359.63 1030.48
  Q 357.01 1023.06 356.76 1022.24
  Q 352.21 1007.47 346.78 994.26
  A 1.15 1.15 0.0 0 0 345.79 993.54
  L 336.51 992.88
  A 1.20 0.94 31.7 0 1 336.35 992.85
  C 333.18 992.14 330.52 992.11 327.66 991.63
  Q 314.06 989.36 310.01 988.47
  Q 290.64 984.22 274.04 977.93
  Q 267.46 975.43 262.88 972.69
  A 0.54 0.54 0.0 0 0 262.09 972.96
  Q 258.87 981.67 244.00 1007.75
  Q 229.04 1034.01 209.72 1055.47
  Q 202.66 1063.32 193.52 1070.04
  Q 180.49 1079.62 165.56 1083.52
  Q 147.34 1088.28 132.29 1078.68
  Q 121.53 1071.83 117.58 1059.88
  A 1.44 1.43 -19.5 0 0 115.71 1058.99
  Q 109.48 1061.35 101.80 1062.57
  C 92.53 1064.04 80.86 1062.63 72.89 1057.42
  Q 63.05 1050.98 58.00 1040.67
  C 54.80 1034.14 54.50 1027.26 55.06 1020.13
  C 55.18 1018.52 56.07 1017.30 55.97 1015.67
  Q 55.92 1014.85 56.28 1013.89
  C 59.23 1005.96 63.28 999.61 68.73 992.23
  Q 74.10 984.98 84.47 973.22
  Q 98.02 957.86 115.27 940.02
  Q 120.55 934.56 145.02 910.65
  A 0.52 0.52 0.0 0 0 145.02 909.91
  Q 136.53 901.33 137.65 889.05
  Q 137.87 886.62 138.68 884.29
  A 0.56 0.56 0.0 0 0 137.90 883.60
  Q 127.63 888.58 116.69 887.06
  C 114.76 886.79 113.09 885.91 111.27 885.89
  A 2.14 2.12 58.8 0 1 110.27 885.64
  Q 103.13 881.81 99.61 877.67
  Q 95.85 873.24 92.45 865.43
  A 3.86 3.78 -59.0 0 1 92.14 864.13
  Q 92.01 862.02 91.44 860.19
  A 3.29 3.29 0.0 0 1 91.28 859.39
  Q 90.09 846.06 92.45 834.47
  C 93.72 828.20 95.35 821.09 97.61 814.31
  Q 105.10 791.80 111.10 774.64
  Q 112.83 769.70 115.16 763.98
  C 118.79 755.09 121.50 747.51 125.39 739.18
  Q 130.68 727.88 132.04 725.29
  Q 136.29 717.17 138.29 713.17
  Q 142.14 705.45 144.67 701.15
  Q 162.71 670.58 178.93 649.92
  Q 194.74 629.78 212.59 610.84
  Q 215.06 608.22 215.06 603.99
  Q 215.06 590.30 214.86 582.75
  C 214.79 580.06 214.24 576.66 214.17 573.75
  Q 213.75 555.52 214.00 540.10
  C 214.10 533.62 215.05 526.74 215.11 519.74
  A 8.19 7.80 52.3 0 1 215.26 518.30
  Q 215.84 515.48 215.93 513.09
  Q 216.08 508.86 216.43 507.91
  Q 216.48 507.80 217.76 497.94
  Q 218.45 492.68 219.40 488.00
  Q 223.37 468.43 229.52 450.60
  Q 229.96 449.35 231.04 446.89
  C 231.76 445.24 232.07 443.81 232.84 441.83
  Q 248.40 401.73 278.92 368.16
  Q 298.40 346.72 322.07 332.08
  Q 362.37 307.15 410.01 301.46
  Q 424.97 299.68 440.00 300.19
  Q 449.55 300.52 461.24 302.11
  Q 476.33 304.16 493.14 308.84
  Q 508.49 313.11 522.39 320.84
  Q 529.63 324.87 532.65 328.12
  A 0.96 0.93 62.2 0 0 533.54 328.41
  Q 538.92 327.37 545.48 325.81
  Q 552.33 324.18 557.42 323.28
  Q 575.57 320.06 582.93 319.43
  Q 590.18 318.80 591.65 318.60
  C 597.38 317.80 602.39 318.05 608.12 317.46
  Q 611.58 317.10 615.88 317.06
  Q 645.71 316.73 653.13 317.19
  Q 676.46 318.62 691.24 320.13
  Q 699.71 320.99 722.98 324.55
  Q 757.23 329.78 796.06 343.68
  Q 802.97 346.15 815.74 352.08
  Q 851.08 368.49 877.23 391.02
  Q 894.67 406.04 910.79 426.69
  Q 931.27 452.92 943.21 484.51
  Q 945.31 490.06 948.58 500.63
  Q 951.87 511.26 952.87 517.80
  Q 953.58 522.52 954.10 525.43
  Q 954.98 530.45 955.22 533.09
  Q 956.80 550.87 956.65 554.26
  Q 956.42 559.80 955.88 567.48
  Q 955.64 570.96 953.69 577.04
  C 949.70 589.49 937.73 592.62 926.31 587.96
  Q 919.41 585.14 914.86 581.06
  Q 907.15 574.15 904.47 572.27
  A 2.26 2.06 66.1 0 0 903.72 571.94
  C 901.35 571.43 898.26 572.95 896.30 572.91
  Q 894.58 572.88 888.96 573.91
  C 881.42 575.29 875.66 575.95 863.87 577.72
  Q 853.82 579.23 846.16 580.55
  Q 838.15 581.93 830.89 582.94
  Q 821.04 584.31 815.64 585.24
  Q 779.81 591.44 745.16 597.18
  Q 741.17 597.85 739.59 597.93
  C 736.86 598.07 734.72 598.74 732.14 598.98
  Q 723.41 599.78 720.01 600.32
  Q 715.28 601.09 713.19 601.06
  C 709.95 601.02 707.53 601.95 704.10 601.94
  C 700.09 601.93 695.77 602.96 692.29 602.98
  C 685.58 603.02 679.12 603.96 672.57 603.95
  Q 663.01 603.94 649.75 604.46
  Q 631.19 605.18 613.00 604.20
  C 609.04 603.98 603.70 604.25 599.02 603.76
  Z"
/>
<path fill="#503a27" d="
  M 599.02 603.76
  Q 598.33 603.74 597.91 603.32
  A 0.51 0.50 -77.5 0 0 597.08 603.85
  Q 597.74 605.67 599.04 607.70
  Q 608.48 622.42 616.19 640.53
  Q 619.89 649.21 622.43 655.74
  C 624.78 661.79 626.00 666.40 628.17 672.81
  Q 630.46 679.58 632.18 688.53
  Q 634.92 702.83 636.39 713.44
  C 638.45 728.36 638.62 743.53 638.18 759.21
  Q 637.87 770.48 636.60 779.72
  Q 634.58 794.44 632.54 804.44
  Q 625.73 837.83 610.17 867.69
  Q 602.02 883.31 598.76 888.28
  Q 584.15 910.60 567.97 926.46
  Q 544.55 949.41 514.67 964.40
  Q 506.03 968.73 497.15 971.87
  Q 495.43 972.48 482.14 977.19
  Q 480.20 977.87 478.21 978.28
  A 2.96 2.96 0.0 0 0 475.84 981.25
  L 475.89 983.63
  A 0.77 0.75 -58.6 0 0 475.97 983.97
  Q 476.77 985.72 478.27 990.65
  Q 478.28 990.66 478.41 990.86
  Q 478.51 990.99 478.62 991.11
  A 1.69 1.69 0.0 0 1 479.01 991.76
  Q 480.70 997.08 482.13 1002.69
  Q 482.34 1003.51 482.85 1004.29
  A 0.60 0.42 -79.7 0 1 482.90 1004.40
  L 485.67 1014.53
  A 1.82 1.82 0.0 0 0 487.30 1015.87
  C 494.51 1016.40 501.49 1015.70 508.77 1016.02
  Q 509.37 1016.05 520.27 1016.36
  Q 541.22 1016.98 544.24 1017.31
  Q 552.67 1018.23 560.22 1018.93
  Q 570.47 1019.88 585.42 1023.88
  C 588.87 1024.80 593.42 1027.17 594.48 1030.57
  C 597.23 1039.42 589.80 1046.69 580.98 1043.97
  Q 570.55 1040.76 567.17 1040.03
  Q 560.54 1038.61 553.09 1037.11
  Q 546.16 1035.72 536.76 1035.60
  A 0.63 0.63 0.0 0 0 536.21 1036.56
  Q 537.12 1038.06 539.02 1038.98
  Q 542.75 1040.78 557.02 1047.48
  C 559.94 1048.85 563.76 1051.21 566.64 1053.15
  Q 572.00 1056.78 571.10 1063.49
  C 569.87 1072.78 561.20 1073.55 554.26 1070.25
  Q 550.43 1068.44 548.86 1067.41
  Q 531.17 1055.77 511.68 1048.92
  Q 510.01 1048.33 507.05 1047.55
  Q 505.12 1047.04 502.41 1046.21
  Q 500.77 1045.71 495.28 1044.87
  C 485.75 1043.43 474.53 1041.52 463.01 1040.98
  C 458.10 1040.75 454.40 1040.07 448.98 1039.96
  Q 444.15 1039.86 439.39 1038.79
  C 432.24 1037.20 430.10 1028.60 432.12 1022.46
  A 2.26 2.20 75.7 0 1 432.60 1021.63
  Q 435.53 1018.39 440.25 1017.92
  Q 448.95 1017.05 456.00 1016.72
  Q 457.59 1016.65 459.18 1014.59
  A 1.35 1.35 0.0 0 0 459.40 1013.38
  L 451.40 987.41
  A 1.82 1.82 0.0 0 0 449.89 986.13
  C 447.46 985.81 445.86 986.88 444.11 987.13
  C 436.06 988.25 427.71 990.58 418.90 991.47
  Q 402.50 993.14 393.15 993.87
  C 388.93 994.20 384.82 993.76 379.58 994.00
  A 0.62 0.62 0.0 0 0 378.98 994.65
  Q 379.13 998.23 379.65 999.23
  Q 380.73 1001.35 382.21 1006.27
  Q 382.46 1007.12 383.06 1007.83
  A 0.50 0.30 -87.2 0 1 383.14 1007.98
  L 392.43 1038.14
  A 2.91 2.91 0.0 0 0 394.97 1040.18
  Q 410.24 1041.43 427.42 1043.47
  Q 445.38 1045.60 448.72 1046.34
  Q 449.28 1046.46 450.94 1047.04
  A 3.88 3.85 57.8 0 0 451.76 1047.23
  Q 466.06 1048.94 479.67 1054.89
  C 487.37 1058.25 492.98 1063.41 488.32 1071.87
  C 484.96 1077.98 477.00 1077.38 470.88 1075.05
  Q 457.57 1069.97 452.05 1067.49
  C 446.72 1065.10 443.54 1064.28 436.91 1062.16
  Q 430.63 1060.14 422.25 1059.19
  Q 421.64 1059.12 421.34 1059.39
  Q 420.94 1059.74 421.16 1060.20
  Q 421.47 1060.85 421.74 1060.47
  Q 421.51 1061.61 422.24 1062.28
  C 424.58 1064.39 428.69 1066.22 431.13 1067.70
  Q 438.91 1072.42 452.67 1080.85
  Q 455.16 1082.37 459.07 1085.39
  C 463.42 1088.74 465.07 1094.59 460.89 1099.04
  C 457.50 1102.66 452.09 1102.33 447.88 1100.36
  Q 443.36 1098.24 422.76 1087.52
  Q 407.06 1079.35 393.11 1074.41
  Q 387.39 1072.39 375.62 1068.64
  C 364.49 1065.11 354.78 1063.88 339.90 1061.76
  C 333.97 1060.91 329.30 1061.01 323.23 1060.55
  C 317.93 1060.16 312.05 1058.26 312.00 1052.26
  Q 311.94 1043.71 319.80 1040.75
  A 3.41 2.92 -55.1 0 1 320.57 1040.55
  Q 331.18 1039.00 342.45 1040.04
  Q 348.79 1040.62 351.64 1040.75
  Q 357.42 1041.00 360.82 1041.88
  A 1.45 1.41 40.5 0 0 361.75 1041.82
  Q 364.29 1040.80 363.52 1038.25
  Q 357.44 1018.22 350.80 1000.21
  Q 349.87 997.68 348.60 994.91
  C 346.93 991.24 344.53 992.40 341.56 992.07
  Q 314.65 989.07 289.21 981.55
  Q 276.35 977.75 263.90 972.09
  A 2.49 2.48 25.0 0 0 260.62 973.28
  Q 254.67 985.67 250.68 992.91
  Q 249.17 995.65 240.60 1010.62
  C 233.05 1023.80 224.17 1036.16 214.23 1048.23
  C 203.64 1061.08 190.83 1072.12 175.73 1078.70
  Q 168.37 1081.91 156.01 1083.60
  Q 154.87 1083.76 148.77 1083.13
  C 140.34 1082.26 132.30 1078.01 126.46 1072.30
  Q 124.05 1069.95 121.86 1066.06
  Q 118.58 1060.26 118.03 1059.35
  Q 116.60 1057.00 113.26 1058.26
  Q 99.18 1063.60 84.87 1060.65
  Q 76.56 1058.94 71.22 1054.77
  Q 65.02 1049.92 61.24 1043.70
  Q 56.50 1035.93 55.99 1027.66
  C 55.30 1016.75 60.21 1006.60 66.54 997.52
  Q 72.22 989.40 83.51 976.26
  Q 95.34 962.50 108.35 949.09
  Q 130.71 926.05 146.30 911.36
  A 0.95 0.94 -40.2 0 0 146.41 910.11
  C 143.97 906.85 141.62 903.92 140.41 900.07
  Q 138.14 892.82 139.84 885.34
  A 2.51 2.46 -47.9 0 0 139.79 884.08
  L 139.43 882.91
  A 1.40 1.40 0.0 0 0 137.43 882.09
  C 117.29 892.99 95.23 881.18 92.81 858.57
  Q 91.83 849.33 92.96 841.52
  Q 94.26 832.58 96.08 824.47
  Q 97.19 819.51 101.19 807.95
  Q 106.28 793.23 111.35 778.46
  Q 114.77 768.51 117.41 762.11
  C 120.39 754.91 122.67 748.39 126.36 740.61
  Q 130.58 731.72 133.27 725.89
  C 135.68 720.65 138.93 715.68 141.62 709.64
  C 144.54 703.10 149.16 696.39 154.39 687.85
  Q 167.89 665.82 182.92 646.92
  Q 196.06 630.37 215.25 609.79
  A 1.80 1.78 73.4 0 0 215.69 608.97
  Q 215.95 607.88 216.09 605.57
  Q 216.66 595.71 215.89 586.33
  C 215.48 581.31 216.05 576.74 215.85 572.00
  Q 215.14 555.39 215.37 550.24
  Q 215.80 540.66 215.91 536.75
  Q 216.19 526.90 216.47 523.27
  Q 217.83 505.53 220.07 492.55
  Q 221.65 483.40 225.17 469.92
  Q 237.07 424.47 264.75 387.27
  Q 272.72 376.56 286.36 362.11
  C 290.08 358.17 295.25 353.58 299.93 349.68
  Q 319.92 332.99 343.30 322.03
  C 346.16 320.69 349.22 319.52 352.87 317.93
  Q 359.33 315.11 369.81 311.65
  Q 379.66 308.39 387.25 306.86
  Q 406.58 302.95 420.76 302.02
  Q 428.29 301.52 445.90 301.99
  Q 449.43 302.08 452.07 302.56
  C 454.95 303.09 457.57 302.87 460.26 303.45
  Q 462.29 303.89 467.89 304.60
  Q 471.69 305.07 475.51 305.86
  Q 490.67 308.97 504.92 314.14
  C 513.71 317.34 523.90 322.38 531.49 328.73
  Q 532.23 329.34 533.94 329.62
  Q 534.86 329.77 536.53 329.37
  Q 566.33 322.14 597.29 319.61
  Q 605.68 318.93 615.22 318.76
  C 622.58 318.64 630.66 318.24 639.18 318.56
  Q 649.94 318.97 661.77 319.33
  Q 663.17 319.38 664.57 319.46
  Q 675.40 320.09 686.07 320.97
  Q 688.37 321.16 693.36 321.82
  C 697.85 322.42 704.70 322.99 709.56 323.99
  Q 713.16 324.73 715.51 324.98
  Q 720.11 325.47 721.48 325.71
  Q 743.32 329.53 749.80 331.24
  Q 759.23 333.74 766.74 335.80
  Q 794.24 343.34 818.07 354.72
  Q 851.58 370.73 877.57 393.21
  Q 887.45 401.75 900.03 415.95
  Q 924.85 443.96 939.04 477.98
  Q 943.67 489.05 948.24 504.99
  Q 951.70 517.05 953.15 530.05
  Q 954.59 542.96 954.87 550.22
  Q 955.27 560.71 953.85 570.40
  C 952.58 579.05 947.91 587.95 938.23 588.51
  Q 929.82 589.00 922.56 584.67
  Q 915.90 580.68 913.43 578.30
  Q 909.37 574.38 905.52 571.24
  Q 903.62 569.69 901.77 570.30
  Q 900.07 570.85 900.01 570.79
  Q 899.83 570.61 858.89 576.99
  Q 808.12 584.91 796.02 587.09
  Q 780.25 589.94 757.83 593.61
  Q 742.84 596.06 735.56 596.91
  Q 725.04 598.14 713.25 599.86
  Q 710.89 600.20 707.65 600.19
  C 705.26 600.17 702.55 600.95 700.12 600.91
  Q 695.06 600.84 690.07 601.44
  C 684.58 602.11 679.98 601.80 674.73 602.22
  C 669.29 602.66 664.19 602.77 656.00 602.92
  Q 650.04 603.04 612.00 602.96
  Q 608.74 602.95 599.88 602.31
  A 0.77 0.76 -79.4 0 0 599.10 602.85
  Q 598.98 603.21 599.02 603.76
  Z
  M 512.03 353.38
  Q 513.51 350.28 514.16 348.90
  Q 518.61 339.45 508.94 335.25
  Q 492.46 328.09 474.24 324.56
  Q 462.34 322.25 459.86 321.94
  Q 450.87 320.83 440.25 320.68
  Q 417.70 320.36 396.79 323.56
  Q 374.24 327.02 347.72 339.26
  Q 344.61 340.69 339.92 343.49
  Q 333.38 347.38 332.37 348.12
  C 324.85 353.63 317.34 358.54 310.70 364.18
  Q 295.16 377.39 285.09 390.07
  C 279.51 397.09 274.35 403.15 270.09 410.57
  C 261.41 425.69 252.51 440.26 247.63 456.69
  C 245.04 465.42 241.25 475.05 239.14 484.51
  Q 233.90 507.94 232.76 520.97
  Q 231.08 540.16 230.92 552.79
  Q 230.91 553.45 230.84 574.64
  C 230.81 584.84 231.66 593.60 232.06 603.51
  C 232.26 608.41 232.75 612.62 230.12 615.86
  C 228.01 618.44 223.61 623.29 220.99 627.34
  Q 214.39 637.55 210.34 642.11
  C 196.53 657.66 183.88 673.95 172.61 692.44
  Q 159.98 713.17 156.54 719.26
  Q 141.00 746.70 129.55 778.48
  Q 120.27 804.25 115.14 819.60
  Q 109.95 835.16 109.10 850.04
  C 108.63 858.31 113.13 865.15 122.02 865.41
  Q 131.67 865.70 140.01 861.24
  C 148.55 856.67 156.86 850.02 165.30 842.04
  Q 174.48 833.34 195.54 812.88
  Q 203.33 805.30 210.29 797.44
  Q 223.19 782.86 224.51 781.51
  C 227.17 778.80 231.82 770.29 238.16 767.69
  A 2.01 2.00 60.6 0 1 240.53 768.36
  Q 242.45 770.95 241.53 774.57
  C 239.65 781.98 237.57 785.78 233.18 794.43
  Q 230.82 799.09 224.41 806.16
  Q 201.22 831.72 180.14 854.88
  C 171.84 863.99 159.23 873.73 158.64 886.89
  Q 158.40 892.23 158.90 894.57
  C 161.35 906.12 182.78 904.60 190.93 902.95
  Q 196.90 901.74 201.83 900.07
  Q 215.48 895.44 227.42 889.64
  Q 241.16 882.96 246.86 878.59
  C 255.20 872.19 267.56 862.58 276.80 853.49
  Q 290.17 840.33 294.62 835.87
  Q 296.25 834.24 308.05 820.06
  Q 309.36 818.49 318.57 809.42
  C 320.33 807.68 322.64 806.34 324.84 805.99
  A 2.49 2.49 0.0 0 1 327.68 808.01
  C 328.76 814.12 326.16 818.35 322.90 824.31
  Q 318.27 832.76 309.94 842.44
  Q 295.05 859.73 283.59 870.82
  Q 278.28 875.96 273.84 881.10
  Q 267.69 888.22 260.47 893.57
  C 258.73 894.86 255.71 897.96 255.12 899.67
  Q 254.50 901.45 255.97 903.81
  C 258.66 908.14 261.91 908.27 267.16 908.94
  Q 273.15 909.71 278.86 909.14
  C 286.89 908.35 294.49 907.47 302.38 905.01
  Q 312.97 901.72 316.44 900.55
  C 322.33 898.57 327.31 895.92 332.60 893.75
  Q 338.55 891.32 344.49 888.13
  Q 375.64 871.43 400.25 847.75
  Q 415.24 833.32 425.99 813.55
  Q 426.93 811.81 427.69 809.68
  C 429.04 805.88 429.61 803.92 431.70 799.88
  Q 439.65 784.51 443.32 766.11
  Q 444.08 762.31 444.42 758.73
  C 445.06 752.08 445.92 746.14 445.90 740.11
  C 445.80 712.28 436.25 684.31 421.40 660.88
  C 415.66 651.85 408.00 644.17 400.47 636.53
  Q 396.30 632.29 385.00 622.48
  Q 364.13 604.34 357.52 597.58
  Q 346.42 586.24 341.26 576.51
  Q 318.74 534.03 324.82 483.54
  C 325.46 478.20 327.15 471.46 328.08 465.65
  Q 329.09 459.32 331.43 452.47
  Q 336.93 436.38 344.80 423.75
  Q 353.99 408.99 364.72 397.21
  Q 369.28 392.19 375.74 387.00
  Q 390.30 375.29 404.62 367.15
  Q 415.41 361.01 433.16 355.15
  C 444.24 351.48 456.83 349.92 468.28 349.15
  Q 488.84 347.77 509.91 354.30
  A 1.78 1.77 21.4 0 0 512.03 353.38
  Z
  M 639.94 507.37
  Q 646.59 507.10 656.75 506.90
  Q 718.41 505.69 755.74 507.32
  C 792.30 508.93 828.85 514.39 862.92 526.70
  Q 875.15 531.12 886.80 537.63
  C 899.91 544.96 912.07 553.01 923.08 563.17
  Q 926.65 566.46 929.51 568.23
  C 935.27 571.78 936.18 564.87 936.61 560.97
  Q 937.88 549.24 936.57 536.02
  Q 934.54 515.36 927.43 495.78
  Q 919.91 475.06 910.21 459.26
  Q 897.10 437.91 878.52 418.21
  Q 859.64 398.18 837.15 384.66
  Q 812.75 369.98 782.91 359.66
  Q 752.68 349.22 723.48 344.34
  Q 698.99 340.26 677.99 338.21
  Q 643.71 334.88 607.89 336.69
  Q 598.48 337.16 585.92 338.53
  Q 568.54 340.43 564.00 341.22
  Q 543.63 344.79 532.12 347.66
  C 528.87 348.47 528.44 352.52 527.83 355.70
  C 526.93 360.48 526.92 366.41 526.48 369.74
  Q 525.90 374.11 526.08 378.02
  Q 526.27 382.09 525.57 395.02
  Q 525.15 402.81 525.18 412.00
  Q 525.28 440.45 525.31 446.79
  C 525.38 461.26 526.15 475.53 526.12 488.52
  C 526.11 493.65 526.74 497.68 527.32 503.37
  A 1.80 1.80 0.0 0 0 528.90 504.98
  C 541.16 506.43 554.12 506.99 570.02 507.25
  C 574.42 507.32 580.30 507.94 585.01 507.94
  Q 604.56 507.96 623.15 507.97
  Q 624.84 507.97 639.94 507.37
  Z
  M 461.51 706.91
  C 461.75 712.50 463.26 718.87 463.55 723.27
  Q 464.56 738.31 462.92 753.23
  Q 462.09 760.75 458.96 773.21
  Q 455.23 788.08 453.94 792.99
  Q 451.71 801.51 449.50 805.78
  Q 445.37 813.76 443.10 818.19
  C 428.99 845.77 410.36 866.43 386.14 884.85
  C 379.09 890.21 371.83 893.93 363.66 899.10
  C 353.67 905.41 340.86 911.92 331.85 915.85
  Q 321.44 920.39 304.54 924.91
  Q 283.90 930.44 259.48 927.82
  C 253.81 927.21 247.93 923.76 243.13 920.80
  C 238.63 918.02 235.44 914.38 232.09 910.96
  A 1.47 1.46 -34.4 0 0 230.43 910.65
  Q 216.65 916.99 203.54 921.80
  C 196.05 924.54 189.30 925.53 180.12 924.64
  Q 175.13 924.16 167.23 924.09
  Q 163.23 924.05 158.56 925.66
  Q 155.48 926.72 151.39 930.62
  Q 136.59 944.76 131.60 949.85
  C 121.48 960.16 113.74 967.40 106.20 976.42
  Q 92.51 992.79 81.38 1007.75
  C 74.16 1017.46 69.13 1029.76 78.81 1038.98
  C 83.51 1043.45 92.86 1045.05 98.65 1043.79
  Q 106.38 1042.12 113.67 1037.44
  Q 117.97 1034.68 125.59 1026.24
  C 141.56 1008.57 157.11 988.86 169.41 973.91
  C 172.91 969.66 177.16 964.05 182.69 963.74
  A 1.36 1.36 0.0 0 1 184.13 965.08
  Q 184.30 973.87 180.44 982.18
  C 176.20 991.32 171.60 999.44 164.69 1008.42
  Q 150.23 1027.20 134.33 1044.32
  Q 132.81 1045.96 132.69 1047.34
  A 2.11 2.02 -48.9 0 0 132.72 1048.01
  C 134.15 1055.87 144.01 1064.20 152.24 1064.26
  C 170.46 1064.41 181.78 1054.43 193.41 1041.93
  Q 213.67 1020.16 228.56 994.73
  C 234.93 983.86 237.92 978.81 247.02 963.76
  Q 249.51 959.65 252.41 956.67
  C 257.72 951.24 266.11 951.98 272.70 955.21
  C 288.77 963.06 307.73 968.28 324.80 971.43
  C 342.74 974.74 362.54 975.48 381.95 975.09
  Q 391.66 974.89 404.74 973.53
  Q 419.25 972.02 427.40 970.57
  Q 435.52 969.12 449.51 966.49
  C 466.35 963.32 481.67 957.50 498.62 950.07
  C 511.57 944.39 522.82 937.03 534.60 928.83
  Q 545.75 921.07 557.15 908.89
  Q 577.72 886.94 591.74 861.68
  C 601.21 844.63 607.78 825.43 612.62 806.21
  C 613.75 801.70 614.69 795.63 615.23 791.92
  Q 616.78 781.28 618.46 763.06
  Q 620.79 757.10 620.74 747.50
  Q 620.52 704.25 607.29 664.85
  C 605.40 659.22 602.34 652.24 600.46 647.83
  Q 589.14 621.28 572.65 598.37
  A 3.16 3.16 0.0 0 0 570.67 597.12
  C 560.20 595.17 550.62 592.86 542.41 587.59
  C 528.79 578.85 519.11 563.12 515.56 547.72
  Q 513.21 537.49 512.95 531.77
  Q 511.82 506.70 511.70 505.11
  Q 510.99 495.17 510.95 478.39
  Q 510.92 461.09 510.80 443.25
  Q 510.78 440.67 510.79 436.00
  Q 510.82 405.17 510.93 376.70
  C 510.94 374.59 511.05 372.48 509.21 371.33
  Q 506.54 369.66 501.51 368.52
  C 494.49 366.92 486.30 365.80 479.01 365.97
  Q 476.97 366.02 468.51 366.17
  C 458.82 366.34 448.15 368.81 438.32 371.87
  Q 431.57 373.97 428.90 375.07
  Q 413.43 381.45 405.46 386.52
  Q 365.51 411.91 347.97 457.38
  Q 344.66 465.96 343.26 473.30
  Q 341.49 482.59 341.19 489.75
  Q 340.38 509.16 343.85 531.69
  Q 344.33 534.83 345.83 539.63
  Q 354.31 566.69 373.38 587.12
  Q 375.50 589.39 394.63 607.21
  Q 399.91 612.12 405.46 617.69
  C 411.11 623.37 416.02 627.78 421.47 634.15
  C 433.81 648.58 443.81 663.41 451.44 680.84
  C 454.28 687.31 456.42 694.41 459.10 702.39
  Q 459.52 703.67 461.51 706.91
  Z
  M 883.53 555.70
  Q 883.45 555.84 883.96 555.37
  Q 884.64 554.81 883.05 553.73
  Q 871.81 546.16 858.08 540.90
  Q 844.33 535.65 829.76 532.28
  Q 813.86 528.61 809.54 527.96
  Q 784.61 524.17 765.49 523.33
  Q 753.13 522.79 747.61 522.51
  C 732.46 521.74 719.76 522.17 702.09 522.08
  Q 690.39 522.02 674.42 522.53
  Q 654.97 523.14 622.19 523.09
  C 618.75 523.08 613.17 523.49 610.50 523.45
  Q 582.94 523.05 578.39 523.12
  Q 570.59 523.25 562.62 522.72
  C 555.02 522.21 547.02 522.08 539.19 521.48
  Q 534.78 521.15 530.05 521.41
  A 0.55 0.55 0.0 0 0 529.53 521.89
  Q 529.06 525.28 529.36 528.64
  Q 530.54 541.70 534.73 552.03
  Q 543.41 573.40 565.48 580.03
  C 577.92 583.77 591.52 584.73 604.55 584.88
  C 614.25 584.98 622.46 585.91 632.18 585.92
  Q 657.17 585.97 661.94 585.83
  C 667.32 585.68 674.41 584.85 680.70 584.89
  Q 691.60 584.95 705.03 583.69
  Q 716.62 582.61 735.07 580.33
  Q 744.99 579.11 805.39 569.43
  Q 808.35 568.95 811.20 568.60
  Q 814.99 568.12 817.00 567.76
  Q 828.14 565.78 841.99 563.68
  Q 850.51 562.38 883.05 556.86
  Q 883.72 556.75 883.94 556.11
  Q 884.02 555.87 883.53 555.70
  Z"
/>
<path fill="#51453b" d="
  M 512.03 353.38
  A 1.78 1.77 21.4 0 1 509.91 354.30
  Q 488.84 347.77 468.28 349.15
  C 456.83 349.92 444.24 351.48 433.16 355.15
  Q 415.41 361.01 404.62 367.15
  Q 390.30 375.29 375.74 387.00
  Q 369.28 392.19 364.72 397.21
  Q 353.99 408.99 344.80 423.75
  Q 336.93 436.38 331.43 452.47
  Q 329.09 459.32 328.08 465.65
  C 327.15 471.46 325.46 478.20 324.82 483.54
  Q 318.74 534.03 341.26 576.51
  Q 346.42 586.24 357.52 597.58
  Q 364.13 604.34 385.00 622.48
  Q 396.30 632.29 400.47 636.53
  C 408.00 644.17 415.66 651.85 421.40 660.88
  C 436.25 684.31 445.80 712.28 445.90 740.11
  C 445.92 746.14 445.06 752.08 444.42 758.73
  Q 444.08 762.31 443.32 766.11
  Q 439.65 784.51 431.70 799.88
  C 429.61 803.92 429.04 805.88 427.69 809.68
  Q 426.93 811.81 425.99 813.55
  Q 415.24 833.32 400.25 847.75
  Q 375.64 871.43 344.49 888.13
  Q 338.55 891.32 332.60 893.75
  C 327.31 895.92 322.33 898.57 316.44 900.55
  Q 312.97 901.72 302.38 905.01
  C 294.49 907.47 286.89 908.35 278.86 909.14
  Q 273.15 909.71 267.16 908.94
  C 261.91 908.27 258.66 908.14 255.97 903.81
  Q 254.50 901.45 255.12 899.67
  C 255.71 897.96 258.73 894.86 260.47 893.57
  Q 267.69 888.22 273.84 881.10
  Q 278.28 875.96 283.59 870.82
  Q 295.05 859.73 309.94 842.44
  Q 318.27 832.76 322.90 824.31
  C 326.16 818.35 328.76 814.12 327.68 808.01
  A 2.49 2.49 0.0 0 0 324.84 805.99
  C 322.64 806.34 320.33 807.68 318.57 809.42
  Q 309.36 818.49 308.05 820.06
  Q 296.25 834.24 294.62 835.87
  Q 290.17 840.33 276.80 853.49
  C 267.56 862.58 255.20 872.19 246.86 878.59
  Q 241.16 882.96 227.42 889.64
  Q 215.48 895.44 201.83 900.07
  Q 196.90 901.74 190.93 902.95
  C 182.78 904.60 161.35 906.12 158.90 894.57
  Q 158.40 892.23 158.64 886.89
  C 159.23 873.73 171.84 863.99 180.14 854.88
  Q 201.22 831.72 224.41 806.16
  Q 230.82 799.09 233.18 794.43
  C 237.57 785.78 239.65 781.98 241.53 774.57
  Q 242.45 770.95 240.53 768.36
  A 2.01 2.00 60.6 0 0 238.16 767.69
  C 231.82 770.29 227.17 778.80 224.51 781.51
  Q 223.19 782.86 210.29 797.44
  Q 203.33 805.30 195.54 812.88
  Q 174.48 833.34 165.30 842.04
  C 156.86 850.02 148.55 856.67 140.01 861.24
  Q 131.67 865.70 122.02 865.41
  C 113.13 865.15 108.63 858.31 109.10 850.04
  Q 109.95 835.16 115.14 819.60
  Q 120.27 804.25 129.55 778.48
  Q 141.00 746.70 156.54 719.26
  Q 159.98 713.17 172.61 692.44
  C 183.88 673.95 196.53 657.66 210.34 642.11
  Q 214.39 637.55 220.99 627.34
  C 223.61 623.29 228.01 618.44 230.12 615.86
  C 232.75 612.62 232.26 608.41 232.06 603.51
  C 231.66 593.60 230.81 584.84 230.84 574.64
  Q 230.91 553.45 230.92 552.79
  Q 231.08 540.16 232.76 520.97
  Q 233.90 507.94 239.14 484.51
  C 241.25 475.05 245.04 465.42 247.63 456.69
  C 252.51 440.26 261.41 425.69 270.09 410.57
  C 274.35 403.15 279.51 397.09 285.09 390.07
  Q 295.16 377.39 310.70 364.18
  C 317.34 358.54 324.85 353.63 332.37 348.12
  Q 333.38 347.38 339.92 343.49
  Q 344.61 340.69 347.72 339.26
  Q 374.24 327.02 396.79 323.56
  Q 417.70 320.36 440.25 320.68
  Q 450.87 320.83 459.86 321.94
  Q 462.34 322.25 474.24 324.56
  Q 492.46 328.09 508.94 335.25
  Q 518.61 339.45 514.16 348.90
  Q 513.51 350.28 512.03 353.38
  Z"
/>
<path fill="#020101" d="
  M 623.15 507.97
  Q 604.56 507.96 585.01 507.94
  C 580.30 507.94 574.42 507.32 570.02 507.25
  C 554.12 506.99 541.16 506.43 528.90 504.98
  A 1.80 1.80 0.0 0 1 527.32 503.37
  C 526.74 497.68 526.11 493.65 526.12 488.52
  C 526.15 475.53 525.38 461.26 525.31 446.79
  Q 525.28 440.45 525.18 412.00
  Q 525.15 402.81 525.57 395.02
  Q 526.27 382.09 526.08 378.02
  Q 525.90 374.11 526.48 369.74
  C 526.92 366.41 526.93 360.48 527.83 355.70
  C 528.44 352.52 528.87 348.47 532.12 347.66
  Q 543.63 344.79 564.00 341.22
  Q 568.54 340.43 585.92 338.53
  Q 598.48 337.16 607.89 336.69
  Q 643.71 334.88 677.99 338.21
  Q 698.99 340.26 723.48 344.34
  Q 752.68 349.22 782.91 359.66
  Q 812.75 369.98 837.15 384.66
  Q 859.64 398.18 878.52 418.21
  Q 897.10 437.91 910.21 459.26
  Q 919.91 475.06 927.43 495.78
  Q 934.54 515.36 936.57 536.02
  Q 937.88 549.24 936.61 560.97
  C 936.18 564.87 935.27 571.78 929.51 568.23
  Q 926.65 566.46 923.08 563.17
  C 912.07 553.01 899.91 544.96 886.80 537.63
  Q 875.15 531.12 862.92 526.70
  C 828.85 514.39 792.30 508.93 755.74 507.32
  Q 718.41 505.69 656.75 506.90
  Q 646.59 507.10 639.94 507.37
  Q 624.84 507.97 623.15 507.97
  Z
  M 788.21 508.57
  Q 813.33 511.52 840.14 518.37
  Q 863.99 524.48 883.12 534.35
  C 888.01 536.88 893.82 540.56 899.09 543.67
  Q 907.86 548.83 917.57 557.09
  C 924.48 562.98 928.52 567.41 932.44 568.18
  A 1.71 1.71 0.0 0 0 934.42 566.94
  Q 935.57 562.59 935.81 557.00
  Q 936.25 546.84 935.37 536.76
  Q 933.28 516.49 926.62 497.32
  C 915.43 465.07 896.97 438.08 872.39 413.61
  Q 851.10 392.43 826.22 379.84
  Q 816.50 374.93 816.21 374.78
  Q 810.77 371.98 806.10 369.97
  Q 766.42 352.85 723.60 345.71
  Q 689.62 340.04 664.24 338.44
  Q 638.33 336.81 604.24 338.41
  Q 593.78 338.89 580.79 340.45
  Q 562.05 342.70 557.47 343.68
  Q 543.84 346.58 533.54 348.56
  C 531.51 348.95 530.50 349.60 530.02 351.56
  Q 528.58 357.53 528.22 363.98
  Q 525.92 405.81 526.60 444.74
  C 527.09 472.43 527.30 488.22 528.11 502.52
  A 1.43 1.41 0.7 0 0 529.42 503.85
  C 533.22 504.13 536.67 504.70 540.55 504.90
  C 580.51 507.02 624.89 506.52 658.34 505.68
  Q 697.73 504.70 732.25 505.22
  Q 759.28 505.62 788.21 508.57
  Z"
/>
<path fill="#ffbb32" d="
  M 935.37 536.76
  L 935.04 538.29
  A 0.24 0.24 0.0 0 1 934.56 538.27
  Q 933.16 527.30 931.29 518.20
  Q 929.18 507.96 925.83 498.66
  Q 917.36 475.11 903.63 453.87
  C 901.78 450.99 899.35 448.11 897.32 445.09
  Q 895.03 441.67 892.59 438.59
  Q 889.33 434.47 885.95 430.41
  Q 880.06 423.34 878.88 422.15
  C 871.39 414.64 867.19 410.01 860.58 404.44
  Q 847.45 393.35 833.32 384.90
  Q 829.34 382.52 825.00 380.43
  A 1.71 1.69 -46.6 0 0 823.42 380.48
  Q 815.48 384.93 809.78 390.52
  C 807.25 392.83 804.39 394.89 802.17 397.23
  C 792.73 407.16 785.23 418.58 778.24 430.73
  C 773.34 439.25 769.15 449.42 767.19 457.94
  Q 765.89 463.59 763.03 477.67
  Q 761.68 484.32 761.25 491.05
  Q 760.86 497.25 760.05 504.44
  A 0.59 0.58 5.1 0 0 760.60 505.09
  L 781.92 506.16
  A 1.10 0.99 -34.1 0 1 782.21 506.20
  Q 785.27 507.02 788.46 507.13
  L 788.78 508.12
  A 0.28 0.26 -43.2 0 1 788.77 508.28
  Q 788.60 508.60 788.21 508.57
  Q 759.28 505.62 732.25 505.22
  Q 697.73 504.70 658.34 505.68
  C 624.89 506.52 580.51 507.02 540.55 504.90
  C 536.67 504.70 533.22 504.13 529.42 503.85
  A 1.43 1.41 0.7 0 1 528.11 502.52
  C 527.30 488.22 527.09 472.43 526.60 444.74
  Q 525.92 405.81 528.22 363.98
  Q 528.58 357.53 530.02 351.56
  C 530.50 349.60 531.51 348.95 533.54 348.56
  Q 543.84 346.58 557.47 343.68
  Q 562.05 342.70 580.79 340.45
  Q 593.78 338.89 604.24 338.41
  Q 638.33 336.81 664.24 338.44
  Q 689.62 340.04 723.60 345.71
  Q 766.42 352.85 806.10 369.97
  Q 810.77 371.98 816.21 374.78
  Q 816.50 374.93 826.22 379.84
  Q 851.10 392.43 872.39 413.61
  C 896.97 438.08 915.43 465.07 926.62 497.32
  Q 933.28 516.49 935.37 536.76
  Z"
/>
<path fill="#020101" d="
  M 618.46 763.06
  Q 605.96 769.95 601.44 771.67
  Q 589.32 776.29 572.98 776.35
  Q 538.77 776.48 510.61 757.90
  C 506.68 755.30 502.45 751.66 499.10 749.23
  Q 495.22 746.41 490.93 742.18
  Q 482.64 734.00 482.10 733.39
  Q 471.03 720.85 461.51 706.91
  Q 459.52 703.67 459.10 702.39
  C 456.42 694.41 454.28 687.31 451.44 680.84
  C 443.81 663.41 433.81 648.58 421.47 634.15
  C 416.02 627.78 411.11 623.37 405.46 617.69
  Q 399.91 612.12 394.63 607.21
  Q 375.50 589.39 373.38 587.12
  Q 354.31 566.69 345.83 539.63
  Q 344.33 534.83 343.85 531.69
  Q 340.38 509.16 341.19 489.75
  Q 341.49 482.59 343.26 473.30
  Q 344.66 465.96 347.97 457.38
  Q 365.51 411.91 405.46 386.52
  Q 413.43 381.45 428.90 375.07
  Q 431.57 373.97 438.32 371.87
  C 448.15 368.81 458.82 366.34 468.51 366.17
  Q 476.97 366.02 479.01 365.97
  C 486.30 365.80 494.49 366.92 501.51 368.52
  Q 506.54 369.66 509.21 371.33
  C 511.05 372.48 510.94 374.59 510.93 376.70
  Q 510.82 405.17 510.79 436.00
  Q 510.78 440.67 510.80 443.25
  Q 510.92 461.09 510.95 478.39
  Q 510.99 495.17 511.70 505.11
  Q 511.82 506.70 512.95 531.77
  Q 513.21 537.49 515.56 547.72
  C 519.11 563.12 528.79 578.85 542.41 587.59
  C 550.62 592.86 560.20 595.17 570.67 597.12
  A 3.16 3.16 0.0 0 1 572.65 598.37
  Q 589.14 621.28 600.46 647.83
  C 602.34 652.24 605.40 659.22 607.29 664.85
  Q 620.52 704.25 620.74 747.50
  Q 620.79 757.10 618.46 763.06
  Z
  M 344.24 524.82
  C 345.99 543.03 354.90 561.70 365.73 576.25
  Q 371.84 584.47 384.68 596.42
  Q 387.12 598.70 404.94 615.31
  C 424.59 633.63 441.77 655.66 452.74 680.63
  C 455.49 686.89 457.73 694.67 460.01 701.24
  Q 460.64 703.04 461.74 704.77
  C 473.96 723.91 489.59 741.59 508.37 754.83
  C 532.98 772.17 564.58 779.33 594.21 772.56
  C 602.35 770.71 610.36 766.38 617.19 762.23
  A 3.23 3.22 -14.1 0 0 618.73 759.67
  Q 620.59 729.06 614.63 699.07
  C 611.95 685.62 609.07 674.10 604.18 661.06
  C 596.01 639.25 585.29 618.68 572.02 599.60
  A 3.25 3.21 -12.6 0 0 569.88 598.26
  C 556.30 596.06 544.03 591.92 533.65 582.09
  Q 518.65 567.88 514.08 546.83
  Q 513.03 541.98 512.15 537.01
  Q 510.60 518.67 510.13 505.24
  Q 508.15 449.83 509.71 386.50
  Q 509.96 376.48 509.75 374.72
  Q 509.45 372.26 506.87 371.38
  Q 503.08 370.09 499.80 369.44
  C 473.15 364.21 447.69 368.20 422.52 378.95
  C 387.86 393.75 361.36 423.76 348.61 458.97
  C 340.99 479.99 340.96 502.85 344.24 524.82
  Z"
/>
<path fill="#ffbb32" d="
  M 512.15 537.01
  Q 511.26 536.62 511.29 538.49
  Q 511.32 539.87 509.70 542.17
  Q 498.77 557.75 483.06 568.77
  C 466.69 580.25 446.74 584.26 427.10 582.21
  Q 423.36 581.82 420.82 581.23
  C 415.76 580.05 410.37 579.04 405.43 577.34
  Q 371.94 565.82 352.45 535.83
  Q 349.72 531.63 346.45 526.54
  A 1.95 1.69 -74.6 0 1 346.23 526.08
  L 345.65 524.18
  A 0.51 0.50 -29.6 0 0 344.83 523.96
  Q 344.51 524.24 344.24 524.82
  C 340.96 502.85 340.99 479.99 348.61 458.97
  C 361.36 423.76 387.86 393.75 422.52 378.95
  C 447.69 368.20 473.15 364.21 499.80 369.44
  Q 503.08 370.09 506.87 371.38
  Q 509.45 372.26 509.75 374.72
  Q 509.96 376.48 509.71 386.50
  Q 508.15 449.83 510.13 505.24
  Q 510.60 518.67 512.15 537.01
  Z
  M 432.8116 538.0492
  A 45.25 33.00 95.4 0 0 469.9235 496.1056
  A 45.25 33.00 95.4 0 0 441.3284 447.9508
  A 45.25 33.00 95.4 0 0 404.2165 489.8944
  A 45.25 33.00 95.4 0 0 432.8116 538.0492
  Z"
/>
<path fill="#f68f1e" d="
  M 935.37 536.76
  Q 936.25 546.84 935.81 557.00
  Q 935.57 562.59 934.42 566.94
  A 1.71 1.71 0.0 0 1 932.44 568.18
  C 928.52 567.41 924.48 562.98 917.57 557.09
  Q 907.86 548.83 899.09 543.67
  C 893.82 540.56 888.01 536.88 883.12 534.35
  Q 863.99 524.48 840.14 518.37
  Q 813.33 511.52 788.21 508.57
  Q 788.60 508.60 788.77 508.28
  A 0.28 0.26 -43.2 0 0 788.78 508.12
  L 788.46 507.13
  C 800.13 508.21 812.29 510.66 820.34 512.12
  Q 830.66 513.99 837.54 515.89
  C 853.80 520.40 869.42 525.40 883.90 533.09
  Q 907.34 545.52 925.41 561.83
  A 3.77 3.53 -8.2 0 0 925.97 562.22
  L 927.19 562.89
  A 3.02 3.02 0.0 0 0 930.97 562.16
  Q 935.15 557.09 933.35 550.06
  C 932.97 548.59 931.99 547.36 930.98 545.77
  Q 930.32 544.74 929.50 542.40
  Q 927.00 535.30 922.66 523.24
  C 919.84 515.40 916.26 508.82 913.37 500.85
  C 910.60 493.22 907.02 486.25 903.02 479.48
  Q 894.78 465.55 882.55 449.66
  C 866.65 429.02 847.47 412.19 825.72 399.83
  C 820.81 397.04 816.33 395.35 810.82 393.17
  A 0.97 0.96 4.9 0 1 810.24 392.49
  L 809.78 390.52
  Q 815.48 384.93 823.42 380.48
  A 1.71 1.69 -46.6 0 1 825.00 380.43
  Q 829.34 382.52 833.32 384.90
  Q 847.45 393.35 860.58 404.44
  C 867.19 410.01 871.39 414.64 878.88 422.15
  Q 880.06 423.34 885.95 430.41
  Q 889.33 434.47 892.59 438.59
  Q 895.03 441.67 897.32 445.09
  C 899.35 448.11 901.78 450.99 903.63 453.87
  Q 917.36 475.11 925.83 498.66
  Q 929.18 507.96 931.29 518.20
  Q 933.16 527.30 934.56 538.27
  A 0.24 0.24 0.0 0 0 935.04 538.29
  L 935.37 536.76
  Z"
/>
<path fill="#f6742d" d="
  M 809.78 390.52
  L 810.24 392.49
  A 0.97 0.96 4.9 0 0 810.82 393.17
  C 816.33 395.35 820.81 397.04 825.72 399.83
  C 847.47 412.19 866.65 429.02 882.55 449.66
  Q 894.78 465.55 903.02 479.48
  C 907.02 486.25 910.60 493.22 913.37 500.85
  C 916.26 508.82 919.84 515.40 922.66 523.24
  Q 927.00 535.30 929.50 542.40
  Q 930.32 544.74 930.98 545.77
  C 931.99 547.36 932.97 548.59 933.35 550.06
  Q 935.15 557.09 930.97 562.16
  A 3.02 3.02 0.0 0 1 927.19 562.89
  L 925.97 562.22
  A 3.77 3.53 -8.2 0 1 925.41 561.83
  Q 907.34 545.52 883.90 533.09
  C 869.42 525.40 853.80 520.40 837.54 515.89
  Q 830.66 513.99 820.34 512.12
  C 812.29 510.66 800.13 508.21 788.46 507.13
  Q 785.27 507.02 782.21 506.20
  A 1.10 0.99 -34.1 0 0 781.92 506.16
  L 760.60 505.09
  A 0.59 0.58 5.1 0 1 760.05 504.44
  Q 760.86 497.25 761.25 491.05
  Q 761.68 484.32 763.03 477.67
  Q 765.89 463.59 767.19 457.94
  C 769.15 449.42 773.34 439.25 778.24 430.73
  C 785.23 418.58 792.73 407.16 802.17 397.23
  C 804.39 394.89 807.25 392.83 809.78 390.52
  Z"
/>
<path fill="#020101" d="
  M 432.8116 538.0492
  A 45.25 33.00 95.4 0 1 404.2165 489.8944
  A 45.25 33.00 95.4 0 1 441.3284 447.9508
  A 45.25 33.00 95.4 0 1 469.9235 496.1056
  A 45.25 33.00 95.4 0 1 432.8116 538.0492
  Z
  M 433.0229 536.8018
  A 44.03 31.73 95.3 0 0 468.6843 495.8909
  A 44.03 31.73 95.3 0 0 441.1571 449.1182
  A 44.03 31.73 95.3 0 0 405.4957 490.0291
  A 44.03 31.73 95.3 0 0 433.0229 536.8018
  Z"
/>
<ellipse fill="#503a27" cx="0.00" cy="0.00" transform="translate(437.09,492.96) rotate(95.3)" rx="44.03" ry="31.73"/>
<path fill="#020101" d="
  M 883.96 555.37
  Q 875.87 549.97 869.49 546.98
  Q 852.46 539.01 831.42 533.85
  Q 805.12 527.40 778.12 525.43
  Q 731.78 522.05 681.78 523.58
  Q 680.19 523.63 664.70 524.02
  Q 617.97 525.19 596.75 524.91
  Q 565.12 524.48 530.50 522.33
  A 0.41 0.40 88.7 0 0 530.08 522.77
  C 531.55 541.84 536.21 563.60 554.32 573.92
  C 568.21 581.83 584.85 582.91 601.13 583.63
  Q 644.00 585.51 684.75 583.64
  Q 709.26 582.52 728.25 579.98
  Q 745.91 577.63 777.72 572.64
  Q 830.66 564.34 883.53 555.70
  Q 884.02 555.87 883.94 556.11
  Q 883.72 556.75 883.05 556.86
  Q 850.51 562.38 841.99 563.68
  Q 828.14 565.78 817.00 567.76
  Q 814.99 568.12 811.20 568.60
  Q 808.35 568.95 805.39 569.43
  Q 744.99 579.11 735.07 580.33
  Q 716.62 582.61 705.03 583.69
  Q 691.60 584.95 680.70 584.89
  C 674.41 584.85 667.32 585.68 661.94 585.83
  Q 657.17 585.97 632.18 585.92
  C 622.46 585.91 614.25 584.98 604.55 584.88
  C 591.52 584.73 577.92 583.77 565.48 580.03
  Q 543.41 573.40 534.73 552.03
  Q 530.54 541.70 529.36 528.64
  Q 529.06 525.28 529.53 521.89
  A 0.55 0.55 0.0 0 1 530.05 521.41
  Q 534.78 521.15 539.19 521.48
  C 547.02 522.08 555.02 522.21 562.62 522.72
  Q 570.59 523.25 578.39 523.12
  Q 582.94 523.05 610.50 523.45
  C 613.17 523.49 618.75 523.08 622.19 523.09
  Q 654.97 523.14 674.42 522.53
  Q 690.39 522.02 702.09 522.08
  C 719.76 522.17 732.46 521.74 747.61 522.51
  Q 753.13 522.79 765.49 523.33
  Q 784.61 524.17 809.54 527.96
  Q 813.86 528.61 829.76 532.28
  Q 844.33 535.65 858.08 540.90
  Q 871.81 546.16 883.05 553.73
  Q 884.64 554.81 883.96 555.37
  Z"
/>
<path fill="#ffbb32" d="
  M 883.96 555.37
  Q 883.45 555.84 883.53 555.70
  Q 830.66 564.34 777.72 572.64
  Q 745.91 577.63 728.25 579.98
  Q 709.26 582.52 684.75 583.64
  Q 644.00 585.51 601.13 583.63
  C 584.85 582.91 568.21 581.83 554.32 573.92
  C 536.21 563.60 531.55 541.84 530.08 522.77
  A 0.41 0.40 88.7 0 1 530.50 522.33
  Q 565.12 524.48 596.75 524.91
  Q 617.97 525.19 664.70 524.02
  Q 680.19 523.63 681.78 523.58
  Q 731.78 522.05 778.12 525.43
  Q 805.12 527.40 831.42 533.85
  Q 852.46 539.01 869.49 546.98
  Q 875.87 549.97 883.96 555.37
  Z
  M 878.56 554.63
  A 0.45 0.45 0.0 0 0 878.53 553.90
  Q 872.63 549.98 865.07 546.69
  Q 845.95 538.37 825.93 534.08
  Q 818.57 532.50 791.75 528.03
  C 784.03 526.75 776.53 526.73 768.42 525.98
  C 762.89 525.46 757.92 525.81 751.78 525.41
  Q 748.27 525.18 739.33 525.00
  Q 721.84 524.64 717.26 524.70
  Q 697.16 524.94 676.29 524.97
  C 668.84 524.99 658.05 525.97 649.51 525.89
  Q 623.50 525.64 614.57 525.88
  Q 602.79 526.19 588.50 525.74
  C 580.73 525.49 570.28 526.05 561.30 525.27
  Q 555.07 524.72 550.27 524.85
  C 544.17 525.01 538.81 523.90 532.68 523.84
  A 0.74 0.73 88.2 0 0 531.94 524.63
  C 532.81 536.21 534.91 548.08 540.88 557.79
  Q 552.55 576.80 576.57 579.71
  C 586.64 580.93 593.68 582.15 602.26 582.14
  C 609.81 582.14 618.01 582.99 627.88 583.12
  Q 665.01 583.61 699.20 581.38
  Q 705.19 580.99 712.26 580.09
  Q 714.66 579.79 725.32 578.65
  C 744.37 576.61 764.14 572.79 783.45 570.12
  Q 792.06 568.93 810.96 565.69
  Q 822.50 563.72 847.91 560.05
  Q 858.78 558.48 877.18 555.19
  Q 878.06 555.03 878.56 554.63
  Z"
/>
<path fill="#ffeec9" d="
  M 512.15 537.01
  Q 513.03 541.98 514.08 546.83
  Q 518.65 567.88 533.65 582.09
  C 544.03 591.92 556.30 596.06 569.88 598.26
  A 3.25 3.21 -12.6 0 1 572.02 599.60
  C 585.29 618.68 596.01 639.25 604.18 661.06
  C 609.07 674.10 611.95 685.62 614.63 699.07
  Q 620.59 729.06 618.73 759.67
  A 3.23 3.22 -14.1 0 1 617.19 762.23
  C 610.36 766.38 602.35 770.71 594.21 772.56
  C 564.58 779.33 532.98 772.17 508.37 754.83
  C 489.59 741.59 473.96 723.91 461.74 704.77
  Q 460.64 703.04 460.01 701.24
  C 457.73 694.67 455.49 686.89 452.74 680.63
  C 441.77 655.66 424.59 633.63 404.94 615.31
  Q 387.12 598.70 384.68 596.42
  Q 371.84 584.47 365.73 576.25
  C 354.90 561.70 345.99 543.03 344.24 524.82
  Q 344.51 524.24 344.83 523.96
  A 0.51 0.50 -29.6 0 1 345.65 524.18
  L 346.23 526.08
  A 1.95 1.69 -74.6 0 0 346.45 526.54
  Q 349.72 531.63 352.45 535.83
  Q 371.94 565.82 405.43 577.34
  C 410.37 579.04 415.76 580.05 420.82 581.23
  Q 423.36 581.82 427.10 582.21
  C 446.74 584.26 466.69 580.25 483.06 568.77
  Q 498.77 557.75 509.70 542.17
  Q 511.32 539.87 511.29 538.49
  Q 511.26 536.62 512.15 537.01
  Z"
/>
<path fill="#f68f1e" d="
  M 878.56 554.63
  Q 878.06 555.03 877.18 555.19
  Q 858.78 558.48 847.91 560.05
  Q 822.50 563.72 810.96 565.69
  Q 792.06 568.93 783.45 570.12
  C 764.14 572.79 744.37 576.61 725.32 578.65
  Q 714.66 579.79 712.26 580.09
  Q 705.19 580.99 699.20 581.38
  Q 665.01 583.61 627.88 583.12
  C 618.01 582.99 609.81 582.14 602.26 582.14
  C 593.68 582.15 586.64 580.93 576.57 579.71
  Q 552.55 576.80 540.88 557.79
  C 534.91 548.08 532.81 536.21 531.94 524.63
  A 0.74 0.73 88.2 0 1 532.68 523.84
  C 538.81 523.90 544.17 525.01 550.27 524.85
  Q 555.07 524.72 561.30 525.27
  C 570.28 526.05 580.73 525.49 588.50 525.74
  Q 602.79 526.19 614.57 525.88
  Q 623.50 525.64 649.51 525.89
  C 658.05 525.97 668.84 524.99 676.29 524.97
  Q 697.16 524.94 717.26 524.70
  Q 721.84 524.64 739.33 525.00
  Q 748.27 525.18 751.78 525.41
  C 757.92 525.81 762.89 525.46 768.42 525.98
  C 776.53 526.73 784.03 526.75 791.75 528.03
  Q 818.57 532.50 825.93 534.08
  Q 845.95 538.37 865.07 546.69
  Q 872.63 549.98 878.53 553.90
  A 0.45 0.45 0.0 0 1 878.56 554.63
  Z"
/>
<path fill="#020101" d="
  M 599.02 603.76
  Q 598.94 604.55 599.44 605.36
  Q 620.69 640.04 631.34 678.59
  Q 635.82 694.81 638.62 719.54
  Q 639.33 725.80 639.30 728.03
  C 639.25 731.77 639.97 735.11 639.97 739.34
  C 639.98 748.39 640.21 756.02 639.45 764.86
  Q 638.25 778.99 637.48 784.97
  Q 631.93 827.93 612.55 866.33
  Q 603.53 884.22 597.76 892.53
  Q 592.18 900.57 587.09 907.11
  Q 566.13 934.03 537.28 953.01
  Q 530.66 957.37 520.54 962.93
  Q 511.80 967.74 502.96 971.22
  Q 490.97 975.95 477.45 980.31
  A 0.73 0.73 0.0 0 0 476.99 981.24
  Q 482.81 997.85 486.82 1014.09
  A 1.27 1.27 0.0 0 0 488.08 1015.06
  Q 507.41 1014.80 526.08 1015.07
  Q 533.07 1015.17 535.91 1015.51
  C 540.50 1016.07 543.99 1015.87 549.02 1016.41
  C 561.82 1017.79 568.89 1018.55 579.75 1020.95
  C 586.69 1022.48 597.75 1025.24 596.72 1034.80
  C 596.04 1041.19 590.05 1047.51 583.13 1045.84
  C 580.37 1045.18 578.22 1044.89 575.84 1044.05
  C 568.06 1041.31 557.99 1039.51 549.03 1037.88
  Q 542.75 1036.74 537.87 1036.90
  A 0.37 0.37 0.0 0 0 537.76 1037.62
  Q 553.57 1043.37 567.19 1051.99
  Q 568.12 1052.58 571.31 1056.09
  A 2.92 2.88 -79.3 0 1 571.84 1056.88
  C 575.03 1063.94 571.56 1070.26 564.83 1073.17
  Q 562.02 1074.38 558.71 1073.31
  Q 554.03 1071.80 551.62 1070.40
  Q 545.01 1066.57 538.85 1062.92
  Q 525.07 1054.76 507.47 1049.06
  Q 499.57 1046.51 491.48 1045.54
  Q 484.69 1044.73 475.73 1043.32
  Q 473.21 1042.93 467.24 1042.93
  Q 463.10 1042.93 458.79 1042.29
  Q 455.43 1041.80 449.89 1041.88
  A 3.50 3.44 -35.2 0 1 448.67 1041.68
  Q 447.58 1041.31 441.28 1040.67
  Q 434.95 1040.03 431.52 1034.20
  C 429.93 1031.49 429.80 1029.71 429.99 1026.53
  C 430.42 1019.40 435.55 1017.22 441.86 1016.39
  Q 445.75 1015.88 454.92 1015.60
  Q 455.46 1015.59 456.11 1015.65
  Q 457.42 1015.79 457.94 1014.32
  A 0.85 0.83 -44.4 0 0 457.95 1013.80
  L 449.91 987.67
  A 0.62 0.61 74.5 0 0 449.18 987.25
  Q 443.64 988.60 429.34 991.16
  Q 423.47 992.21 413.92 993.22
  C 412.43 993.37 410.89 993.90 409.68 993.91
  C 404.47 993.93 399.73 995.07 394.75 994.96
  Q 390.20 994.86 380.80 995.36
  A 0.73 0.72 78.1 0 0 380.17 996.34
  Q 386.33 1012.43 391.38 1029.72
  Q 392.32 1032.96 392.53 1033.84
  Q 393.13 1036.46 393.88 1038.31
  A 0.87 0.86 -8.7 0 0 394.62 1038.85
  Q 408.89 1039.89 411.06 1040.17
  Q 413.94 1040.55 420.98 1041.38
  Q 430.50 1042.50 439.82 1043.57
  Q 443.60 1044.00 449.11 1044.88
  Q 457.09 1046.16 458.35 1046.44
  Q 461.92 1047.25 470.34 1049.85
  C 478.46 1052.37 495.67 1058.37 490.61 1070.38
  Q 486.91 1079.16 476.94 1077.95
  C 474.69 1077.67 471.10 1076.86 468.60 1075.84
  Q 458.94 1071.91 447.89 1067.43
  Q 436.99 1063.00 422.76 1060.22
  A 1.10 1.10 0.0 0 0 422.07 1060.31
  L 421.74 1060.47
  Q 421.47 1060.85 421.16 1060.20
  Q 420.94 1059.74 421.34 1059.39
  Q 421.64 1059.12 422.25 1059.19
  Q 430.63 1060.14 436.91 1062.16
  C 443.54 1064.28 446.72 1065.10 452.05 1067.49
  Q 457.57 1069.97 470.88 1075.05
  C 477.00 1077.38 484.96 1077.98 488.32 1071.87
  C 492.98 1063.41 487.37 1058.25 479.67 1054.89
  Q 466.06 1048.94 451.76 1047.23
  A 3.88 3.85 57.8 0 1 450.94 1047.04
  Q 449.28 1046.46 448.72 1046.34
  Q 445.38 1045.60 427.42 1043.47
  Q 410.24 1041.43 394.97 1040.18
  A 2.91 2.91 0.0 0 1 392.43 1038.14
  L 383.14 1007.98
  A 0.50 0.30 -87.2 0 0 383.06 1007.83
  Q 382.46 1007.12 382.21 1006.27
  Q 380.73 1001.35 379.65 999.23
  Q 379.13 998.23 378.98 994.65
  A 0.62 0.62 0.0 0 1 379.58 994.00
  C 384.82 993.76 388.93 994.20 393.15 993.87
  Q 402.50 993.14 418.90 991.47
  C 427.71 990.58 436.06 988.25 444.11 987.13
  C 445.86 986.88 447.46 985.81 449.89 986.13
  A 1.82 1.82 0.0 0 1 451.40 987.41
  L 459.40 1013.38
  A 1.35 1.35 0.0 0 1 459.18 1014.59
  Q 457.59 1016.65 456.00 1016.72
  Q 448.95 1017.05 440.25 1017.92
  Q 435.53 1018.39 432.60 1021.63
  A 2.26 2.20 75.7 0 0 432.12 1022.46
  C 430.10 1028.60 432.24 1037.20 439.39 1038.79
  Q 444.15 1039.86 448.98 1039.96
  C 454.40 1040.07 458.10 1040.75 463.01 1040.98
  C 474.53 1041.52 485.75 1043.43 495.28 1044.87
  Q 500.77 1045.71 502.41 1046.21
  Q 505.12 1047.04 507.05 1047.55
  Q 510.01 1048.33 511.68 1048.92
  Q 531.17 1055.77 548.86 1067.41
  Q 550.43 1068.44 554.26 1070.25
  C 561.20 1073.55 569.87 1072.78 571.10 1063.49
  Q 572.00 1056.78 566.64 1053.15
  C 563.76 1051.21 559.94 1048.85 557.02 1047.48
  Q 542.75 1040.78 539.02 1038.98
  Q 537.12 1038.06 536.21 1036.56
  A 0.63 0.63 0.0 0 1 536.76 1035.60
  Q 546.16 1035.72 553.09 1037.11
  Q 560.54 1038.61 567.17 1040.03
  Q 570.55 1040.76 580.98 1043.97
  C 589.80 1046.69 597.23 1039.42 594.48 1030.57
  C 593.42 1027.17 588.87 1024.80 585.42 1023.88
  Q 570.47 1019.88 560.22 1018.93
  Q 552.67 1018.23 544.24 1017.31
  Q 541.22 1016.98 520.27 1016.36
  Q 509.37 1016.05 508.77 1016.02
  C 501.49 1015.70 494.51 1016.40 487.30 1015.87
  A 1.82 1.82 0.0 0 1 485.67 1014.53
  L 482.90 1004.40
  A 0.60 0.42 -79.7 0 0 482.85 1004.29
  Q 482.34 1003.51 482.13 1002.69
  Q 480.70 997.08 479.01 991.76
  A 1.69 1.69 0.0 0 0 478.62 991.11
  Q 478.51 990.99 478.41 990.86
  Q 478.28 990.66 478.27 990.65
  Q 476.77 985.72 475.97 983.97
  A 0.77 0.75 -58.6 0 1 475.89 983.63
  L 475.84 981.25
  A 2.96 2.96 0.0 0 1 478.21 978.28
  Q 480.20 977.87 482.14 977.19
  Q 495.43 972.48 497.15 971.87
  Q 506.03 968.73 514.67 964.40
  Q 544.55 949.41 567.97 926.46
  Q 584.15 910.60 598.76 888.28
  Q 602.02 883.31 610.17 867.69
  Q 625.73 837.83 632.54 804.44
  Q 634.58 794.44 636.60 779.72
  Q 637.87 770.48 638.18 759.21
  C 638.62 743.53 638.45 728.36 636.39 713.44
  Q 634.92 702.83 632.18 688.53
  Q 630.46 679.58 628.17 672.81
  C 626.00 666.40 624.78 661.79 622.43 655.74
  Q 619.89 649.21 616.19 640.53
  Q 608.48 622.42 599.04 607.70
  Q 597.74 605.67 597.08 603.85
  A 0.51 0.50 -77.5 0 1 597.91 603.32
  Q 598.33 603.74 599.02 603.76
  Z"
/>
<path fill="#51453b" d="
  M 461.51 706.91
  Q 471.03 720.85 482.10 733.39
  Q 482.64 734.00 490.93 742.18
  Q 495.22 746.41 499.10 749.23
  C 502.45 751.66 506.68 755.30 510.61 757.90
  Q 538.77 776.48 572.98 776.35
  Q 589.32 776.29 601.44 771.67
  Q 605.96 769.95 618.46 763.06
  Q 616.78 781.28 615.23 791.92
  C 614.69 795.63 613.75 801.70 612.62 806.21
  C 607.78 825.43 601.21 844.63 591.74 861.68
  Q 577.72 886.94 557.15 908.89
  Q 545.75 921.07 534.60 928.83
  C 522.82 937.03 511.57 944.39 498.62 950.07
  C 481.67 957.50 466.35 963.32 449.51 966.49
  Q 435.52 969.12 427.40 970.57
  Q 419.25 972.02 404.74 973.53
  Q 391.66 974.89 381.95 975.09
  C 362.54 975.48 342.74 974.74 324.80 971.43
  C 307.73 968.28 288.77 963.06 272.70 955.21
  C 266.11 951.98 257.72 951.24 252.41 956.67
  Q 249.51 959.65 247.02 963.76
  C 237.92 978.81 234.93 983.86 228.56 994.73
  Q 213.67 1020.16 193.41 1041.93
  C 181.78 1054.43 170.46 1064.41 152.24 1064.26
  C 144.01 1064.20 134.15 1055.87 132.72 1048.01
  A 2.11 2.02 -48.9 0 1 132.69 1047.34
  Q 132.81 1045.96 134.33 1044.32
  Q 150.23 1027.20 164.69 1008.42
  C 171.60 999.44 176.20 991.32 180.44 982.18
  Q 184.30 973.87 184.13 965.08
  A 1.36 1.36 0.0 0 0 182.69 963.74
  C 177.16 964.05 172.91 969.66 169.41 973.91
  C 157.11 988.86 141.56 1008.57 125.59 1026.24
  Q 117.97 1034.68 113.67 1037.44
  Q 106.38 1042.12 98.65 1043.79
  C 92.86 1045.05 83.51 1043.45 78.81 1038.98
  C 69.13 1029.76 74.16 1017.46 81.38 1007.75
  Q 92.51 992.79 106.20 976.42
  C 113.74 967.40 121.48 960.16 131.60 949.85
  Q 136.59 944.76 151.39 930.62
  Q 155.48 926.72 158.56 925.66
  Q 163.23 924.05 167.23 924.09
  Q 175.13 924.16 180.12 924.64
  C 189.30 925.53 196.05 924.54 203.54 921.80
  Q 216.65 916.99 230.43 910.65
  A 1.47 1.46 -34.4 0 1 232.09 910.96
  C 235.44 914.38 238.63 918.02 243.13 920.80
  C 247.93 923.76 253.81 927.21 259.48 927.82
  Q 283.90 930.44 304.54 924.91
  Q 321.44 920.39 331.85 915.85
  C 340.86 911.92 353.67 905.41 363.66 899.10
  C 371.83 893.93 379.09 890.21 386.14 884.85
  C 410.36 866.43 428.99 845.77 443.10 818.19
  Q 445.37 813.76 449.50 805.78
  Q 451.71 801.51 453.94 792.99
  Q 455.23 788.08 458.96 773.21
  Q 462.09 760.75 462.92 753.23
  Q 464.56 738.31 463.55 723.27
  C 463.26 718.87 461.75 712.50 461.51 706.91
  Z"
/>
</svg>
